<?xml version="1.0" encoding="UTF-8"?>
<!--Generator: Apple Native CoreSVG 123-->
<!DOCTYPE svg
PUBLIC "-//W3C//DTD SVG 1.1//EN"
       "http://www.w3.org/Graphics/SVG/1.1/DTD/svg11.dtd">
<svg version="1.1" xmlns="http://www.w3.org/2000/svg" xmlns:xlink="http://www.w3.org/1999/xlink" width="3300" height="2200">
 <!--glyph: "uni1005C1.medium", point size: 100.000000, font version: "Version 15.0d7e11", template writer version: "5"-->
 <g id="Notes">
  <rect height="2200" id="artboard" style="fill:white;opacity:1" width="3300" x="0" y="0"/>
  <line id="" style="fill:none;stroke:black;opacity:1;stroke-width:0.5;" x1="263" x2="3036" y1="292" y2="292"/>
  <text style="stroke:none;fill:black;font-family:-apple-system,&quot;SF Pro Display&quot;,&quot;SF Pro Text&quot;,Helvetica,sans-serif;font-weight:bold;" transform="matrix(1 0 0 1 263 322)">Weight/Scale Variations</text>
  <text style="stroke:none;fill:black;font-family:-apple-system,&quot;SF Pro Display&quot;,&quot;SF Pro Text&quot;,Helvetica,sans-serif;text-anchor:middle;" transform="matrix(1 0 0 1 559.711 322)">Ultralight</text>
  <text style="stroke:none;fill:black;font-family:-apple-system,&quot;SF Pro Display&quot;,&quot;SF Pro Text&quot;,Helvetica,sans-serif;text-anchor:middle;" transform="matrix(1 0 0 1 856.422 322)">Thin</text>
  <text style="stroke:none;fill:black;font-family:-apple-system,&quot;SF Pro Display&quot;,&quot;SF Pro Text&quot;,Helvetica,sans-serif;text-anchor:middle;" transform="matrix(1 0 0 1 1153.13 322)">Light</text>
  <text style="stroke:none;fill:black;font-family:-apple-system,&quot;SF Pro Display&quot;,&quot;SF Pro Text&quot;,Helvetica,sans-serif;text-anchor:middle;" transform="matrix(1 0 0 1 1449.84 322)">Regular</text>
  <text style="stroke:none;fill:black;font-family:-apple-system,&quot;SF Pro Display&quot;,&quot;SF Pro Text&quot;,Helvetica,sans-serif;text-anchor:middle;" transform="matrix(1 0 0 1 1746.56 322)">Medium</text>
  <text style="stroke:none;fill:black;font-family:-apple-system,&quot;SF Pro Display&quot;,&quot;SF Pro Text&quot;,Helvetica,sans-serif;text-anchor:middle;" transform="matrix(1 0 0 1 2043.27 322)">Semibold</text>
  <text style="stroke:none;fill:black;font-family:-apple-system,&quot;SF Pro Display&quot;,&quot;SF Pro Text&quot;,Helvetica,sans-serif;text-anchor:middle;" transform="matrix(1 0 0 1 2339.98 322)">Bold</text>
  <text style="stroke:none;fill:black;font-family:-apple-system,&quot;SF Pro Display&quot;,&quot;SF Pro Text&quot;,Helvetica,sans-serif;text-anchor:middle;" transform="matrix(1 0 0 1 2636.69 322)">Heavy</text>
  <text style="stroke:none;fill:black;font-family:-apple-system,&quot;SF Pro Display&quot;,&quot;SF Pro Text&quot;,Helvetica,sans-serif;text-anchor:middle;" transform="matrix(1 0 0 1 2933.4 322)">Black</text>
  <line id="" style="fill:none;stroke:black;opacity:1;stroke-width:0.5;" x1="263" x2="3036" y1="1903" y2="1903"/>
  <g id="" transform="matrix(1 0 0 1 263 1933)">
   <path d="M 9.24805 0.830078 C 13.5547 0.830078 17.1387 -2.74414 17.1387 -7.05078 C 17.1387 -11.3574 13.5449 -14.9316 9.23828 -14.9316 C 4.94141 -14.9316 1.36719 -11.3574 1.36719 -7.05078 C 1.36719 -2.74414 4.95117 0.830078 9.24805 0.830078 Z M 9.24805 -0.654297 C 5.70312 -0.654297 2.87109 -3.49609 2.87109 -7.05078 C 2.87109 -10.6055 5.69336 -13.4473 9.23828 -13.4473 C 12.793 -13.4473 15.6348 -10.6055 15.6445 -7.05078 C 15.6543 -3.49609 12.8027 -0.654297 9.24805 -0.654297 Z M 9.22852 -3.42773 C 9.69727 -3.42773 9.9707 -3.74023 9.9707 -4.25781 L 9.9707 -6.31836 L 12.1973 -6.31836 C 12.6953 -6.31836 13.0371 -6.57227 13.0371 -7.04102 C 13.0371 -7.51953 12.7148 -7.7832 12.1973 -7.7832 L 9.9707 -7.7832 L 9.9707 -10.0098 C 9.9707 -10.5273 9.69727 -10.8496 9.22852 -10.8496 C 8.75977 -10.8496 8.50586 -10.5078 8.50586 -10.0098 L 8.50586 -7.7832 L 6.29883 -7.7832 C 5.78125 -7.7832 5.44922 -7.51953 5.44922 -7.04102 C 5.44922 -6.57227 5.80078 -6.31836 6.29883 -6.31836 L 8.50586 -6.31836 L 8.50586 -4.25781 C 8.50586 -3.75977 8.75977 -3.42773 9.22852 -3.42773 Z"/>
  </g>
  <g id="" transform="matrix(1 0 0 1 281.506 1933)">
   <path d="M 11.709 2.91016 C 17.1582 2.91016 21.6699 -1.60156 21.6699 -7.05078 C 21.6699 -12.4902 17.1484 -17.0117 11.6992 -17.0117 C 6.25977 -17.0117 1.74805 -12.4902 1.74805 -7.05078 C 1.74805 -1.60156 6.26953 2.91016 11.709 2.91016 Z M 11.709 1.25 C 7.09961 1.25 3.41797 -2.44141 3.41797 -7.05078 C 3.41797 -11.6504 7.08984 -15.3516 11.6992 -15.3516 C 16.3086 -15.3516 20 -11.6504 20.0098 -7.05078 C 20.0195 -2.44141 16.3184 1.25 11.709 1.25 Z M 11.6895 -2.41211 C 12.207 -2.41211 12.5195 -2.77344 12.5195 -3.33984 L 12.5195 -6.23047 L 15.5762 -6.23047 C 16.123 -6.23047 16.5039 -6.51367 16.5039 -7.03125 C 16.5039 -7.55859 16.1426 -7.86133 15.5762 -7.86133 L 12.5195 -7.86133 L 12.5195 -10.9277 C 12.5195 -11.5039 12.207 -11.8555 11.6895 -11.8555 C 11.1719 -11.8555 10.8789 -11.4844 10.8789 -10.9277 L 10.8789 -7.86133 L 7.83203 -7.86133 C 7.26562 -7.86133 6.89453 -7.55859 6.89453 -7.03125 C 6.89453 -6.51367 7.28516 -6.23047 7.83203 -6.23047 L 10.8789 -6.23047 L 10.8789 -3.33984 C 10.8789 -2.79297 11.1719 -2.41211 11.6895 -2.41211 Z"/>
  </g>
  <g id="" transform="matrix(1 0 0 1 304.924 1933)">
   <path d="M 14.9707 5.67383 C 21.9336 5.67383 27.6953 -0.078125 27.6953 -7.04102 C 27.6953 -14.0039 21.9238 -19.7559 14.9609 -19.7559 C 8.00781 -19.7559 2.25586 -14.0039 2.25586 -7.04102 C 2.25586 -0.078125 8.01758 5.67383 14.9707 5.67383 Z M 14.9707 3.85742 C 8.93555 3.85742 4.08203 -1.00586 4.08203 -7.04102 C 4.08203 -13.0762 8.92578 -17.9395 14.9609 -17.9395 C 21.0059 -17.9395 25.8594 -13.0762 25.8691 -7.04102 C 25.8789 -1.00586 21.0156 3.85742 14.9707 3.85742 Z M 14.9512 -1.06445 C 15.5176 -1.06445 15.8691 -1.45508 15.8691 -2.06055 L 15.8691 -6.13281 L 20.1074 -6.13281 C 20.6934 -6.13281 21.1133 -6.46484 21.1133 -7.02148 C 21.1133 -7.59766 20.7227 -7.93945 20.1074 -7.93945 L 15.8691 -7.93945 L 15.8691 -12.1875 C 15.8691 -12.8027 15.5176 -13.1934 14.9512 -13.1934 C 14.3848 -13.1934 14.0625 -12.7832 14.0625 -12.1875 L 14.0625 -7.93945 L 9.83398 -7.93945 C 9.21875 -7.93945 8.80859 -7.59766 8.80859 -7.02148 C 8.80859 -6.46484 9.23828 -6.13281 9.83398 -6.13281 L 14.0625 -6.13281 L 14.0625 -2.06055 C 14.0625 -1.47461 14.3848 -1.06445 14.9512 -1.06445 Z"/>
  </g>
  <text style="stroke:none;fill:black;font-family:-apple-system,&quot;SF Pro Display&quot;,&quot;SF Pro Text&quot;,Helvetica,sans-serif;font-weight:bold;" transform="matrix(1 0 0 1 263 1953)">Design Variations</text>
  <text style="stroke:none;fill:black;font-family:-apple-system,&quot;SF Pro Display&quot;,&quot;SF Pro Text&quot;,Helvetica,sans-serif;" transform="matrix(1 0 0 1 263 1971)">Symbols are supported in up to nine weights and three scales.</text>
  <text style="stroke:none;fill:black;font-family:-apple-system,&quot;SF Pro Display&quot;,&quot;SF Pro Text&quot;,Helvetica,sans-serif;" transform="matrix(1 0 0 1 263 1989)">For optimal layout with text and other symbols, vertically align</text>
  <text style="stroke:none;fill:black;font-family:-apple-system,&quot;SF Pro Display&quot;,&quot;SF Pro Text&quot;,Helvetica,sans-serif;" transform="matrix(1 0 0 1 263 2007)">symbols with the adjacent text.</text>
  <rect height="14" id="" style="fill:#00AEEF;stroke:none;opacity:0.4;" width="3" x="776" y="1919"/>
  <g id="" transform="matrix(1 0 0 1 779 1933)">
   <path d="M 10.5273 0 L 12.373 0 L 7.17773 -14.0918 L 5.43945 -14.0918 L 0.244141 0 L 2.08984 0 L 3.50586 -4.0332 L 9.11133 -4.0332 Z M 6.2793 -11.9531 L 6.33789 -11.9531 L 8.59375 -5.52734 L 4.02344 -5.52734 Z"/>
  </g>
  <rect height="14" id="" style="fill:#00AEEF;stroke:none;opacity:0.4;" width="3" x="791.617" y="1919"/>
  <text style="stroke:none;fill:black;font-family:-apple-system,&quot;SF Pro Display&quot;,&quot;SF Pro Text&quot;,Helvetica,sans-serif;font-weight:bold;" transform="matrix(1 0 0 1 776 1953)">Margins</text>
  <text style="stroke:none;fill:black;font-family:-apple-system,&quot;SF Pro Display&quot;,&quot;SF Pro Text&quot;,Helvetica,sans-serif;" transform="matrix(1 0 0 1 776 1971)">Leading and trailing margins on the left and right side of each symbol</text>
  <text style="stroke:none;fill:black;font-family:-apple-system,&quot;SF Pro Display&quot;,&quot;SF Pro Text&quot;,Helvetica,sans-serif;" transform="matrix(1 0 0 1 776 1989)">can be adjusted by modifying the width of the blue rectangles.</text>
  <text style="stroke:none;fill:black;font-family:-apple-system,&quot;SF Pro Display&quot;,&quot;SF Pro Text&quot;,Helvetica,sans-serif;" transform="matrix(1 0 0 1 776 2007)">Modifications are automatically applied proportionally to all</text>
  <text style="stroke:none;fill:black;font-family:-apple-system,&quot;SF Pro Display&quot;,&quot;SF Pro Text&quot;,Helvetica,sans-serif;" transform="matrix(1 0 0 1 776 2025)">scales and weights.</text>
  <g id="" transform="matrix(1 0 0 1 1289 1933)">
   <path d="M 2.83203 3.11523 L 4.375 4.6582 C 5.22461 5.48828 6.19141 5.41992 7.06055 4.46289 L 17.2754 -6.66016 C 17.7051 -6.36719 18.0957 -6.37695 18.5645 -6.47461 L 19.6094 -6.68945 L 20.3027 -5.99609 L 20.2539 -5.47852 C 20.1855 -4.95117 20.3516 -4.53125 20.8496 -4.0332 L 21.6602 -3.22266 C 22.168 -2.71484 22.8223 -2.68555 23.3008 -3.16406 L 26.5527 -6.41602 C 27.0312 -6.89453 27.0117 -7.54883 26.5039 -8.05664 L 25.6836 -8.87695 C 25.1855 -9.375 24.7754 -9.55078 24.2383 -9.47266 L 23.7109 -9.41406 L 23.0566 -10.0781 L 23.3398 -11.2207 C 23.4863 -11.7871 23.3398 -12.2559 22.7148 -12.8613 L 20.3027 -15.2539 C 16.7578 -18.7793 12.2266 -18.6719 9.11133 -15.5371 C 8.69141 -15.1074 8.64258 -14.5215 8.91602 -14.0918 C 9.15039 -13.7207 9.62891 -13.4961 10.2734 -13.6621 C 11.7871 -14.043 13.3008 -13.9258 14.7852 -12.9199 L 14.1602 -11.3379 C 13.9258 -10.752 13.9453 -10.2734 14.1797 -9.83398 L 3.01758 0.439453 C 2.08008 1.30859 1.97266 2.25586 2.83203 3.11523 Z M 10.6738 -15.1465 C 13.3398 -17.1387 16.6504 -16.8262 19.0527 -14.4141 L 21.6797 -11.8066 C 21.9141 -11.5723 21.9434 -11.3867 21.8848 -11.0938 L 21.5039 -9.53125 L 23.0762 -7.95898 L 24.043 -8.04688 C 24.3262 -8.07617 24.4141 -8.05664 24.6387 -7.83203 L 25.2637 -7.20703 L 22.5098 -4.46289 L 21.8848 -5.07812 C 21.6602 -5.30273 21.6406 -5.40039 21.6699 -5.68359 L 21.7578 -6.64062 L 20.1953 -8.20312 L 18.5742 -7.89062 C 18.291 -7.83203 18.1445 -7.83203 17.9102 -8.07617 L 15.7324 -10.2539 C 15.5078 -10.4883 15.4785 -10.625 15.6055 -10.9473 L 16.5527 -13.2227 C 14.9512 -14.7559 12.8418 -15.6055 10.8008 -14.9512 C 10.7129 -14.9219 10.6445 -14.9414 10.6152 -14.9805 C 10.5859 -15.0293 10.5859 -15.0781 10.6738 -15.1465 Z M 4.10156 2.41211 C 3.61328 1.91406 3.78906 1.61133 4.12109 1.30859 L 15.0781 -8.80859 L 16.3086 -7.57812 L 6.15234 3.34961 C 5.84961 3.68164 5.46875 3.7793 5.06836 3.37891 Z"/>
  </g>
  <text style="stroke:none;fill:black;font-family:-apple-system,&quot;SF Pro Display&quot;,&quot;SF Pro Text&quot;,Helvetica,sans-serif;font-weight:bold;" transform="matrix(1 0 0 1 1289 1953)">Exporting</text>
  <text style="stroke:none;fill:black;font-family:-apple-system,&quot;SF Pro Display&quot;,&quot;SF Pro Text&quot;,Helvetica,sans-serif;" transform="matrix(1 0 0 1 1289 1971)">Symbols should be outlined when exporting to ensure the</text>
  <text style="stroke:none;fill:black;font-family:-apple-system,&quot;SF Pro Display&quot;,&quot;SF Pro Text&quot;,Helvetica,sans-serif;" transform="matrix(1 0 0 1 1289 1989)">design is preserved when submitting to Xcode.</text>
  <text id="template-version" style="stroke:none;fill:black;font-family:-apple-system,&quot;SF Pro Display&quot;,&quot;SF Pro Text&quot;,Helvetica,sans-serif;text-anchor:end;" transform="matrix(1 0 0 1 3036 1933)">Template v.1.0</text>
  <text style="stroke:none;fill:black;font-family:-apple-system,&quot;SF Pro Display&quot;,&quot;SF Pro Text&quot;,Helvetica,sans-serif;text-anchor:end;" transform="matrix(1 0 0 1 3036 1951)">Generated from coloncurrencysign.circle</text>
  <text style="stroke:none;fill:black;font-family:-apple-system,&quot;SF Pro Display&quot;,&quot;SF Pro Text&quot;,Helvetica,sans-serif;text-anchor:end;" transform="matrix(1 0 0 1 3036 1969)">Typeset at 100 points</text>
  <text style="stroke:none;fill:black;font-family:-apple-system,&quot;SF Pro Display&quot;,&quot;SF Pro Text&quot;,Helvetica,sans-serif;" transform="matrix(1 0 0 1 263 726)">Small</text>
  <text style="stroke:none;fill:black;font-family:-apple-system,&quot;SF Pro Display&quot;,&quot;SF Pro Text&quot;,Helvetica,sans-serif;" transform="matrix(1 0 0 1 263 1156)">Medium</text>
  <text style="stroke:none;fill:black;font-family:-apple-system,&quot;SF Pro Display&quot;,&quot;SF Pro Text&quot;,Helvetica,sans-serif;" transform="matrix(1 0 0 1 263 1586)">Large</text>
 </g>
 <g id="Guides">
  <g id="H-reference" style="fill:#27AAE1;stroke:none;" transform="matrix(1 0 0 1 339 696)">
   <path d="M 54.9316 0 L 57.666 0 L 30.5664 -70.459 L 28.0762 -70.459 L 0.976562 0 L 3.66211 0 L 12.9395 -24.4629 L 45.7031 -24.4629 Z M 29.1992 -67.0898 L 29.4434 -67.0898 L 44.8242 -26.709 L 13.8184 -26.709 Z"/>
  </g>
  <line id="Baseline-S" style="fill:none;stroke:#27AAE1;opacity:1;stroke-width:0.577;" x1="263" x2="3036" y1="696" y2="696"/>
  <line id="Capline-S" style="fill:none;stroke:#27AAE1;opacity:1;stroke-width:0.577;" x1="263" x2="3036" y1="625.541" y2="625.541"/>
  <g id="H-reference" style="fill:#27AAE1;stroke:none;" transform="matrix(1 0 0 1 339 1126)">
   <path d="M 54.9316 0 L 57.666 0 L 30.5664 -70.459 L 28.0762 -70.459 L 0.976562 0 L 3.66211 0 L 12.9395 -24.4629 L 45.7031 -24.4629 Z M 29.1992 -67.0898 L 29.4434 -67.0898 L 44.8242 -26.709 L 13.8184 -26.709 Z"/>
  </g>
  <line id="Baseline-M" style="fill:none;stroke:#27AAE1;opacity:1;stroke-width:0.577;" x1="263" x2="3036" y1="1126" y2="1126"/>
  <line id="Capline-M" style="fill:none;stroke:#27AAE1;opacity:1;stroke-width:0.577;" x1="263" x2="3036" y1="1055.54" y2="1055.54"/>
  <g id="H-reference" style="fill:#27AAE1;stroke:none;" transform="matrix(1 0 0 1 339 1556)">
   <path d="M 54.9316 0 L 57.666 0 L 30.5664 -70.459 L 28.0762 -70.459 L 0.976562 0 L 3.66211 0 L 12.9395 -24.4629 L 45.7031 -24.4629 Z M 29.1992 -67.0898 L 29.4434 -67.0898 L 44.8242 -26.709 L 13.8184 -26.709 Z"/>
  </g>
  <line id="Baseline-L" style="fill:none;stroke:#27AAE1;opacity:1;stroke-width:0.577;" x1="263" x2="3036" y1="1556" y2="1556"/>
  <line id="Capline-L" style="fill:none;stroke:#27AAE1;opacity:1;stroke-width:0.577;" x1="263" x2="3036" y1="1485.54" y2="1485.54"/>
  <rect height="119.336" id="left-margin" style="fill:#00AEEF;stroke:none;opacity:0.4;" width="8.74023" x="1391.3" y="1030.79"/>
  <rect height="119.336" id="right-margin" style="fill:#00AEEF;stroke:none;opacity:0.4;" width="8.74023" x="1499.65" y="1030.79"/>
 </g>
 <g id="Symbols">
  <g id="Black-L" transform="matrix(1 0 0 1 2854.05 1556)">
   <path d="M 79.3457 32.8613 C 116.748 32.8613 147.412 2.19727 147.412 -35.2051 C 147.412 -72.6074 116.748 -103.271 79.2969 -103.271 C 41.8945 -103.271 11.2793 -72.6074 11.2793 -35.2051 C 11.2793 2.19727 41.9434 32.8613 79.3457 32.8613 Z M 79.3457 12.4023 C 52.9785 12.4023 31.7383 -8.83789 31.7383 -35.2051 C 31.7383 -61.5723 52.9297 -82.8125 79.2969 -82.8125 C 105.664 -82.8125 126.953 -61.5723 126.953 -35.2051 C 127.002 -8.83789 105.713 12.4023 79.3457 12.4023 Z M 53.418 -35.2051 C 53.418 -23.2422 57.959 -14.6484 65.918 -10.3516 L 64.5996 -4.93164 C 64.502 -4.54102 64.4043 -4.10156 64.4043 -3.61328 C 64.4043 -2.05078 65.5762 -0.927734 67.041 -0.927734 C 68.3105 -0.927734 69.3359 -1.70898 69.6289 -3.02734 L 70.8496 -8.25195 C 72.0703 -7.91016 73.3887 -7.61719 74.6582 -7.37305 L 74.0723 -4.93164 C 73.877 -4.24805 73.877 -3.80859 73.877 -3.51562 C 73.877 -1.95312 74.9512 -0.927734 76.5625 -0.927734 C 77.8809 -0.927734 78.7598 -1.70898 79.1016 -3.02734 L 80.0781 -7.08008 C 90.0879 -7.32422 98.1934 -12.5 101.172 -20.0684 C 101.709 -21.3379 102.002 -22.7051 102.002 -23.9746 C 102.002 -27.9297 99.3164 -30.6152 95.166 -30.6152 C 91.9434 -30.6152 90.0879 -29.1504 88.7207 -25.9766 C 87.5 -23.0957 85.498 -20.9473 83.0566 -20.0684 L 88.7695 -43.8965 C 88.916 -43.7012 89.1113 -43.3594 89.3066 -43.0176 C 90.625 -40.9668 92.334 -39.8438 95.1172 -39.8438 C 99.0234 -39.8438 101.562 -42.3828 101.562 -46.1914 C 101.562 -47.9004 101.074 -49.6582 100.195 -51.3184 C 98.3887 -54.834 95.8008 -57.666 92.4316 -59.6191 L 93.75 -65.2344 C 93.8477 -65.625 93.9453 -66.0156 93.9453 -66.4062 C 93.9453 -67.9688 92.8711 -69.043 91.3086 -69.043 C 90.0879 -69.043 89.0625 -68.3105 88.7207 -66.9922 L 87.5488 -61.9141 C 86.377 -62.3047 85.1074 -62.5488 83.7402 -62.8418 L 84.3262 -65.2832 C 84.4238 -65.6738 84.4727 -66.1133 84.4727 -66.4062 C 84.4727 -67.9688 83.3984 -69.043 81.8359 -69.043 C 80.6152 -69.043 79.5898 -68.3105 79.2969 -66.9922 L 78.418 -63.1348 C 62.8418 -62.793 53.418 -52.3438 53.418 -35.2051 Z M 73.7793 -20.7031 L 80.9082 -50.8301 C 82.2754 -50.5859 83.4961 -50.0488 84.5703 -49.2676 L 77.4902 -19.3359 C 76.0742 -19.5312 74.9023 -20.0195 73.7793 -20.7031 Z M 68.3594 -35.1074 C 68.3594 -42.9688 70.8984 -48.4863 75.3418 -50.293 L 69.7266 -26.5137 C 68.7988 -28.9062 68.3594 -31.7871 68.3594 -35.1074 Z"/>
  </g>
  <g id="Heavy-L" transform="matrix(1 0 0 1 2558.39 1556)">
   <path d="M 78.2715 31.7871 C 115.088 31.7871 145.312 1.61133 145.312 -35.2051 C 145.312 -72.0215 115.039 -102.197 78.2715 -102.197 C 41.4551 -102.197 11.2793 -72.0215 11.2793 -35.2051 C 11.2793 1.61133 41.5039 31.7871 78.2715 31.7871 Z M 78.2715 14.0137 C 51.0254 14.0137 29.0527 -7.95898 29.0527 -35.2051 C 29.0527 -62.5 50.9766 -84.4727 78.2715 -84.4727 C 105.518 -84.4727 127.49 -62.5 127.539 -35.2051 C 127.539 -7.95898 105.566 14.0137 78.2715 14.0137 Z M 52.5879 -35.0586 C 52.5879 -23.3887 56.8359 -14.8438 64.3066 -10.3516 L 62.7441 -4.05273 C 62.6465 -3.66211 62.5488 -3.22266 62.5488 -2.7832 C 62.5488 -1.17188 63.7207 -0.0488281 65.2344 -0.0488281 C 66.5039 -0.0488281 67.5293 -0.830078 67.8711 -2.14844 L 69.2871 -8.00781 C 70.6543 -7.56836 72.1191 -7.17773 73.584 -6.93359 L 72.8516 -4.05273 C 72.7051 -3.41797 72.7051 -3.02734 72.7051 -2.68555 C 72.7051 -1.07422 73.7305 -0.0488281 75.3906 -0.0488281 C 76.709 -0.0488281 77.6367 -0.830078 77.9785 -2.14844 L 79.0527 -6.64062 C 89.1113 -6.88477 97.0703 -12.0605 99.9512 -19.7266 C 100.439 -20.9473 100.732 -22.2168 100.732 -23.4863 C 100.732 -26.9531 98.3398 -29.3457 94.6777 -29.3457 C 91.7969 -29.3457 90.1367 -27.9297 88.9648 -25.0977 C 87.6953 -21.582 85.1074 -18.9941 81.7871 -18.1641 L 88.5254 -45.4102 C 88.8184 -45.0195 89.1602 -44.4336 89.3555 -43.7988 C 90.5273 -41.8945 91.9922 -40.7715 94.5801 -40.7715 C 98.0469 -40.7715 100.293 -43.0176 100.293 -46.4355 C 100.293 -47.9492 99.8535 -49.5605 99.1211 -51.0254 C 97.4609 -54.4922 94.9707 -57.373 91.7969 -59.4238 L 93.3105 -65.625 C 93.457 -66.0156 93.5059 -66.4551 93.5059 -66.7969 C 93.5059 -68.4082 92.4316 -69.4824 90.8691 -69.4824 C 89.5996 -69.4824 88.5254 -68.75 88.2324 -67.4316 L 86.8652 -61.9141 C 85.5469 -62.4023 84.1309 -62.7441 82.5684 -63.0371 L 83.2031 -65.6738 C 83.3496 -66.0645 83.3984 -66.4551 83.3984 -66.7969 C 83.3984 -68.4082 82.3242 -69.4824 80.7617 -69.4824 C 79.4434 -69.4824 78.418 -68.75 78.125 -67.4316 L 77.1484 -63.3301 C 61.9141 -62.8906 52.5879 -52.2461 52.5879 -35.0586 Z M 71.9238 -19.1406 L 80.0293 -52.3438 C 81.5918 -52.0996 82.959 -51.5137 84.1797 -50.6348 L 76.123 -17.5781 C 74.5117 -17.7734 73.1445 -18.3105 71.9238 -19.1406 Z M 65.7227 -35.0098 C 65.7227 -43.8965 68.8965 -50.0977 74.3652 -51.9043 L 67.7246 -24.7559 C 66.4062 -27.4902 65.7227 -30.957 65.7227 -35.0098 Z"/>
  </g>
  <g id="Bold-L" transform="matrix(1 0 0 1 2262.88 1556)">
   <path d="M 77.0996 30.6152 C 113.232 30.6152 142.92 0.878906 142.92 -35.2051 C 142.92 -71.3379 113.184 -101.025 77.0508 -101.025 C 40.9668 -101.025 11.2793 -71.3379 11.2793 -35.2051 C 11.2793 0.878906 41.0156 30.6152 77.0996 30.6152 Z M 77.0996 15.8691 C 48.8281 15.8691 26.0742 -6.93359 26.0742 -35.2051 C 26.0742 -63.4766 48.7793 -86.2793 77.0508 -86.2793 C 105.371 -86.2793 128.125 -63.4766 128.174 -35.2051 C 128.174 -6.93359 105.371 15.8691 77.0996 15.8691 Z M 51.6602 -34.9609 C 51.6602 -23.584 55.6152 -15.0391 62.5488 -10.4004 L 60.6934 -3.07617 C 60.5469 -2.68555 60.498 -2.24609 60.498 -1.85547 C 60.498 -0.195312 61.6699 0.927734 63.1836 0.927734 C 64.502 0.927734 65.5273 0.195312 65.8691 -1.2207 L 67.5293 -7.76367 C 69.043 -7.12891 70.6543 -6.68945 72.3633 -6.39648 L 71.5332 -3.07617 C 71.3867 -2.49023 71.3379 -2.09961 71.3379 -1.75781 C 71.3379 -0.146484 72.4121 0.927734 74.0723 0.927734 C 75.3906 0.927734 76.3672 0.195312 76.709 -1.2207 L 77.9785 -6.10352 C 88.0371 -6.39648 95.752 -11.5723 98.584 -19.3359 C 99.0234 -20.5078 99.3164 -21.7285 99.3164 -22.9004 C 99.3164 -25.8301 97.2656 -27.9297 94.1406 -27.9297 C 91.6504 -27.9297 90.1367 -26.5625 89.209 -24.1211 C 87.9395 -19.873 84.668 -16.7969 80.3223 -16.0156 L 88.1836 -47.0703 C 88.7207 -46.4844 89.1602 -45.6543 89.4043 -44.6777 C 90.3809 -42.9688 91.6016 -41.748 93.9941 -41.748 C 96.9727 -41.748 98.877 -43.7012 98.877 -46.6797 C 98.877 -47.998 98.5352 -49.4141 97.9004 -50.6836 C 96.4355 -54.1504 94.0918 -57.0312 91.1133 -59.1797 L 92.8223 -66.0645 C 92.9688 -66.4551 93.0176 -66.8945 93.0176 -67.2852 C 93.0176 -68.8477 91.9434 -70.0195 90.332 -70.0195 C 89.0137 -70.0195 87.9883 -69.2871 87.6465 -67.8711 L 86.1328 -61.9141 C 84.668 -62.5488 83.0078 -62.9883 81.2988 -63.2812 L 81.9824 -66.0645 C 82.1289 -66.5039 82.1777 -66.8945 82.1777 -67.2852 C 82.1777 -68.8477 81.1035 -70.0195 79.4922 -70.0195 C 78.1738 -70.0195 77.1484 -69.2383 76.8066 -67.8711 L 75.7324 -63.5742 C 60.8398 -62.9883 51.6602 -52.1484 51.6602 -34.9609 Z M 69.8242 -17.3828 L 79.0527 -54.0527 C 80.8105 -53.7598 82.373 -53.125 83.7891 -52.1973 L 74.6094 -15.5762 C 72.8027 -15.8691 71.2402 -16.4551 69.8242 -17.3828 Z M 62.7441 -34.9121 C 62.7441 -44.9219 66.6504 -51.8555 73.291 -53.6621 L 65.5273 -22.7539 C 63.7207 -25.8789 62.7441 -30.0293 62.7441 -34.9121 Z"/>
  </g>
  <g id="Semibold-L" transform="matrix(1 0 0 1 1966.97 1556)">
   <path d="M 76.2695 29.7852 C 111.914 29.7852 141.309 0.439453 141.309 -35.2051 C 141.309 -70.8496 111.865 -100.244 76.2695 -100.244 C 40.625 -100.244 11.2793 -70.8496 11.2793 -35.2051 C 11.2793 0.439453 40.6738 29.7852 76.2695 29.7852 Z M 76.2695 17.0898 C 47.3145 17.0898 24.0234 -6.25 24.0234 -35.2051 C 24.0234 -64.209 47.2656 -87.5 76.2695 -87.5 C 105.225 -87.5 128.564 -64.209 128.613 -35.2051 C 128.662 -6.25 105.273 17.0898 76.2695 17.0898 Z M 50.9766 -34.8633 C 50.9766 -23.6816 54.7363 -15.2344 61.2793 -10.4004 L 59.2773 -2.44141 C 59.1309 -2.00195 59.082 -1.61133 59.082 -1.17188 C 59.082 0.439453 60.2051 1.61133 61.7676 1.61133 C 63.1348 1.61133 64.1602 0.878906 64.5508 -0.537109 L 66.3086 -7.56836 C 67.9199 -6.88477 69.6777 -6.34766 71.5332 -6.05469 L 70.6055 -2.39258 C 70.459 -1.85547 70.4102 -1.51367 70.4102 -1.12305 C 70.4102 0.537109 71.4844 1.61133 73.1445 1.61133 C 74.5117 1.61133 75.4883 0.878906 75.8789 -0.537109 L 77.1973 -5.71289 C 87.2559 -6.05469 94.873 -11.2793 97.6074 -19.0918 C 98.0469 -20.166 98.291 -21.3867 98.291 -22.4609 C 98.291 -25.0977 96.5332 -26.9531 93.7988 -26.9531 C 91.5039 -26.9531 90.1855 -25.5859 89.3555 -23.4375 C 88.0859 -18.75 84.375 -15.2832 79.3457 -14.5508 L 87.9883 -48.2422 C 88.623 -47.5098 89.1602 -46.4844 89.4531 -45.3125 C 90.2832 -43.6523 91.3574 -42.4316 93.5547 -42.4316 C 96.2402 -42.4316 97.9004 -44.1895 97.9004 -46.8262 C 97.9004 -48.0469 97.6074 -49.3164 97.0703 -50.4395 C 95.7031 -53.9062 93.5059 -56.7871 90.625 -59.0332 L 92.4805 -66.3574 C 92.627 -66.7969 92.6758 -67.1875 92.6758 -67.5781 C 92.6758 -69.1895 91.6016 -70.3613 89.9902 -70.3613 C 88.6719 -70.3613 87.5977 -69.6289 87.207 -68.2129 L 85.5957 -61.9141 C 84.0332 -62.6465 82.2754 -63.1348 80.4199 -63.4766 L 81.1523 -66.3574 C 81.25 -66.7969 81.3477 -67.1875 81.3477 -67.5781 C 81.3477 -69.1895 80.2734 -70.3613 78.6621 -70.3613 C 77.2949 -70.3613 76.2695 -69.5801 75.8789 -68.2129 L 74.7559 -63.7207 C 60.1074 -63.0859 50.9766 -52.0996 50.9766 -34.8633 Z M 68.4082 -16.2109 L 78.3691 -55.2246 C 80.2734 -54.9316 81.9824 -54.248 83.4961 -53.2715 L 73.584 -14.209 C 71.6309 -14.502 69.9219 -15.1855 68.4082 -16.2109 Z M 60.7422 -34.8145 C 60.7422 -45.6543 65.1367 -53.125 72.5586 -54.834 L 64.0137 -21.3867 C 61.8652 -24.8047 60.7422 -29.3457 60.7422 -34.8145 Z"/>
  </g>
  <g id="Medium-L" transform="matrix(1 0 0 1 1670.87 1556)">
   <path d="M 75.6836 29.1992 C 110.938 29.1992 140.088 0.0488281 140.088 -35.2051 C 140.088 -70.459 110.889 -99.6094 75.6348 -99.6094 C 40.3809 -99.6094 11.2793 -70.459 11.2793 -35.2051 C 11.2793 0.0488281 40.3809 29.1992 75.6836 29.1992 Z M 75.6836 18.0664 C 46.1426 18.0664 22.4609 -5.71289 22.4609 -35.2051 C 22.4609 -64.6973 46.1426 -88.4766 75.6348 -88.4766 C 105.127 -88.4766 128.906 -64.6973 128.906 -35.2051 C 128.955 -5.71289 105.176 18.0664 75.6836 18.0664 Z M 50.4883 -34.7656 C 50.4883 -23.7793 54.1016 -15.332 60.3516 -10.4004 L 58.2031 -1.9043 C 58.0566 -1.51367 58.0078 -1.07422 58.0078 -0.683594 C 58.0078 0.976562 59.1309 2.09961 60.6934 2.09961 C 62.0605 2.09961 63.1348 1.41602 63.4766 -0.0488281 L 65.3809 -7.42188 C 67.0898 -6.68945 68.9453 -6.10352 70.8984 -5.76172 L 69.9219 -1.9043 C 69.7754 -1.41602 69.7266 -1.02539 69.7266 -0.634766 C 69.7266 1.02539 70.8008 2.09961 72.4609 2.09961 C 73.8281 2.09961 74.8535 1.41602 75.2441 -0.0488281 L 76.6113 -5.41992 C 86.7188 -5.81055 94.1895 -11.0352 96.9238 -18.8965 C 97.2656 -19.9219 97.5586 -21.0938 97.5586 -22.168 C 97.5586 -24.5117 95.9961 -26.2207 93.5059 -26.2207 C 91.4062 -26.2207 90.1855 -24.9023 89.502 -22.9004 C 88.1836 -17.8711 84.1309 -14.1113 78.5645 -13.4277 L 87.8418 -49.1211 C 88.5742 -48.291 89.209 -47.1191 89.502 -45.752 C 90.1855 -44.1895 91.1621 -42.9688 93.2617 -42.9688 C 95.6543 -42.9688 97.168 -44.5312 97.168 -46.9727 C 97.168 -48.0957 96.875 -49.2188 96.4355 -50.293 C 95.166 -53.7109 93.0176 -56.6406 90.2832 -58.8867 L 92.2363 -66.5527 C 92.3828 -67.041 92.4316 -67.4316 92.4316 -67.8223 C 92.4316 -69.4336 91.3574 -70.6055 89.6973 -70.6055 C 88.3789 -70.6055 87.3047 -69.9219 86.9141 -68.457 L 85.2051 -61.8652 C 83.5449 -62.6953 81.6895 -63.2324 79.7363 -63.5742 L 80.5176 -66.6016 C 80.6152 -66.9922 80.7129 -67.4316 80.7129 -67.8223 C 80.7129 -69.4336 79.6387 -70.6055 77.9785 -70.6055 C 76.6113 -70.6055 75.5859 -69.873 75.1953 -68.457 L 74.0234 -63.8672 C 59.5703 -63.1348 50.4883 -52.0508 50.4883 -34.7656 Z M 67.334 -15.2832 L 77.8809 -56.1035 C 79.834 -55.8105 81.6895 -55.0781 83.3008 -54.0527 L 72.8027 -13.1836 C 70.7031 -13.5254 68.8965 -14.209 67.334 -15.2832 Z M 59.1797 -34.7656 C 59.1797 -46.1914 63.9648 -54.0527 71.9727 -55.7617 L 62.8418 -20.3613 C 60.498 -23.9746 59.1797 -28.8574 59.1797 -34.7656 Z"/>
  </g>
  <g id="Regular-L" transform="matrix(1 0 0 1 1374.97 1556)">
   <path d="M 74.8535 28.3691 C 109.668 28.3691 138.477 -0.390625 138.477 -35.2051 C 138.477 -70.0195 109.619 -98.7793 74.8047 -98.7793 C 40.0391 -98.7793 11.2793 -70.0195 11.2793 -35.2051 C 11.2793 -0.390625 40.0879 28.3691 74.8535 28.3691 Z M 74.8535 19.2871 C 44.6777 19.2871 20.4102 -5.0293 20.4102 -35.2051 C 20.4102 -65.3809 44.6289 -89.6973 74.8047 -89.6973 C 105.029 -89.6973 129.297 -65.3809 129.346 -35.2051 C 129.395 -5.0293 105.078 19.2871 74.8535 19.2871 Z M 49.8535 -34.7168 C 49.8535 -23.9258 53.2227 -15.4785 59.1309 -10.4004 L 56.7871 -1.26953 C 56.6406 -0.830078 56.5918 -0.439453 56.5918 -0.0488281 C 56.5918 1.61133 57.7637 2.7832 59.3262 2.7832 C 60.6934 2.7832 61.7676 2.09961 62.1582 0.585938 L 64.1602 -7.27539 C 66.0156 -6.39648 67.9688 -5.76172 70.0684 -5.41992 L 68.9941 -1.2207 C 68.8477 -0.78125 68.7988 -0.439453 68.7988 -0.0488281 C 68.7988 1.70898 69.873 2.7832 71.5332 2.7832 C 72.9492 2.7832 73.9746 2.09961 74.3652 0.585938 L 75.8789 -5.07812 C 85.9863 -5.46875 93.3105 -10.6934 95.9961 -18.6523 C 96.3379 -19.6289 96.582 -20.752 96.582 -21.7773 C 96.582 -23.7793 95.2637 -25.2441 93.1641 -25.2441 C 91.3086 -25.2441 90.1855 -23.9258 89.6484 -22.2656 C 88.3789 -16.6992 83.8379 -12.6465 77.5879 -11.9629 L 87.6465 -50.2441 C 88.5254 -49.3164 89.209 -47.9004 89.5508 -46.3867 C 90.0879 -44.9219 90.918 -43.6523 92.8711 -43.6523 C 94.9219 -43.6523 96.1914 -45.0195 96.1914 -47.1191 C 96.1914 -48.0957 95.9961 -49.1211 95.6543 -50.0488 C 94.4824 -53.4668 92.4316 -56.3965 89.7949 -58.7402 L 91.8945 -66.8945 C 92.041 -67.334 92.0898 -67.7246 92.0898 -68.1641 C 92.0898 -69.7754 91.0156 -70.9473 89.3555 -70.9473 C 87.9883 -70.9473 86.9141 -70.2637 86.5234 -68.75 L 84.7168 -61.8652 C 82.959 -62.793 80.957 -63.3789 78.8574 -63.7695 L 79.6875 -66.8945 C 79.7852 -67.334 79.8828 -67.7246 79.8828 -68.1641 C 79.8828 -69.7754 78.8086 -70.9473 77.1484 -70.9473 C 75.7324 -70.9473 74.707 -70.2148 74.3164 -68.75 L 73.0957 -64.0137 C 58.8379 -63.2324 49.8535 -51.9531 49.8535 -34.7168 Z M 65.918 -14.0625 L 77.1973 -57.2266 C 79.2969 -56.9336 81.2988 -56.2012 83.0078 -55.127 L 71.7773 -11.8652 C 69.5312 -12.207 67.627 -12.9395 65.918 -14.0625 Z M 57.1777 -34.7168 C 57.1777 -46.9238 62.4512 -55.2734 71.2402 -56.9824 L 61.3281 -18.9941 C 58.6426 -22.8516 57.1777 -28.2227 57.1777 -34.7168 Z"/>
  </g>
  <g id="Light-L" transform="matrix(1 0 0 1 1079.18 1556)">
   <path d="M 73.9258 27.4902 C 108.301 27.4902 136.621 -0.830078 136.621 -35.1562 C 136.621 -69.5312 108.252 -97.8516 73.9258 -97.8516 C 39.5508 -97.8516 11.2793 -69.5312 11.2793 -35.1562 C 11.2793 -0.830078 39.5996 27.4902 73.9258 27.4902 Z M 73.9258 20.6055 C 43.1152 20.6055 18.2129 -4.3457 18.2129 -35.1562 C 18.2129 -66.0156 43.0664 -90.918 73.9258 -90.918 C 104.736 -90.918 129.688 -66.0156 129.736 -35.1562 C 129.736 -4.3457 104.785 20.6055 73.9258 20.6055 Z M 49.9023 -34.8145 C 49.9023 -24.2676 53.125 -16.0645 58.8867 -11.1816 L 56.3965 -2.05078 C 56.2988 -1.66016 56.2988 -1.36719 56.2988 -1.07422 C 56.2988 0.390625 57.2754 1.36719 58.5449 1.36719 C 59.7168 1.36719 60.5957 0.78125 60.9375 -0.439453 L 63.0859 -8.44727 C 65.0391 -7.4707 67.1875 -6.73828 69.4824 -6.34766 L 68.3105 -2.00195 C 68.2129 -1.66016 68.1641 -1.36719 68.1641 -1.02539 C 68.1641 0.488281 69.0918 1.36719 70.459 1.36719 C 71.6309 1.36719 72.5098 0.78125 72.8027 -0.439453 L 74.3164 -6.05469 C 84.3262 -6.29883 91.6992 -11.4258 94.1895 -19.4824 C 94.4824 -20.4102 94.7754 -21.5332 94.7754 -22.4609 C 94.7754 -24.1211 93.7012 -25.293 91.9922 -25.293 C 90.4785 -25.293 89.5996 -24.2188 89.209 -22.9004 C 88.0371 -16.5039 82.9102 -11.9629 75.7324 -11.5234 L 86.5234 -51.2207 C 87.793 -49.7559 88.7695 -47.8027 89.1113 -45.7031 C 89.502 -44.3359 90.2832 -43.3594 91.8457 -43.3594 C 93.457 -43.3594 94.4824 -44.4824 94.4824 -46.2402 C 94.4824 -47.168 94.2383 -48.0957 93.9453 -49.0234 C 92.8711 -52.4414 90.8691 -55.4688 88.2324 -57.8613 L 90.4297 -66.1621 C 90.5762 -66.5527 90.625 -66.8945 90.625 -67.2852 C 90.625 -68.6523 89.6973 -69.6289 88.3301 -69.6289 C 87.207 -69.6289 86.2793 -69.0918 85.9375 -67.8223 L 83.9844 -60.5957 C 82.0801 -61.7188 79.9316 -62.4023 77.6367 -62.8418 L 78.5645 -66.1621 C 78.6621 -66.5039 78.7598 -66.8945 78.7598 -67.2852 C 78.7598 -68.6523 77.8809 -69.6289 76.416 -69.6289 C 75.2441 -69.6289 74.3652 -68.9941 74.0234 -67.8223 L 72.7539 -63.0859 C 58.5938 -62.5488 49.9023 -51.709 49.9023 -34.8145 Z M 64.502 -13.916 L 76.2695 -57.6172 C 78.6133 -57.2754 80.7129 -56.3965 82.6172 -55.2246 L 70.8496 -11.4746 C 68.4082 -11.8652 66.3086 -12.6465 64.502 -13.916 Z M 55.6641 -34.8145 C 55.6641 -47.6562 61.4258 -56.2988 71.2891 -57.4707 L 60.5957 -17.8223 C 57.4219 -21.875 55.6641 -27.6855 55.6641 -34.8145 Z"/>
  </g>
  <g id="Thin-L" transform="matrix(1 0 0 1 783.693 1556)">
   <path d="M 72.7051 26.3184 C 106.494 26.3184 134.18 -1.36719 134.18 -35.1074 C 134.18 -68.8965 106.494 -96.582 72.7051 -96.582 C 38.9648 -96.582 11.2793 -68.8965 11.2793 -35.1074 C 11.2793 -1.36719 38.9648 26.3184 72.7051 26.3184 Z M 72.7051 22.3145 C 41.0156 22.3145 15.2832 -3.41797 15.2832 -35.1074 C 15.2832 -66.8457 41.0156 -92.5781 72.7051 -92.5781 C 104.395 -92.5781 130.176 -66.8457 130.176 -35.1074 C 130.176 -3.41797 104.443 22.3145 72.7051 22.3145 Z M 49.9512 -34.9121 C 49.9512 -24.7559 52.9785 -16.7969 58.4961 -12.1582 L 55.957 -3.07617 C 55.8594 -2.7832 55.8594 -2.58789 55.8594 -2.44141 C 55.8594 -1.31836 56.6895 -0.488281 57.5684 -0.488281 C 58.4473 -0.488281 59.0332 -0.976562 59.3262 -1.85547 L 61.6211 -10.0098 C 63.7207 -8.83789 66.1133 -8.00781 68.6523 -7.61719 L 67.4316 -3.07617 C 67.334 -2.7832 67.334 -2.58789 67.334 -2.34375 C 67.334 -1.12305 68.0664 -0.488281 68.9941 -0.488281 C 69.873 -0.488281 70.5078 -0.976562 70.752 -1.85547 L 72.3145 -7.32422 C 82.1289 -7.37305 89.5508 -12.4023 91.748 -20.6055 C 92.041 -21.4844 92.334 -22.6074 92.334 -23.4375 C 92.334 -24.5605 91.6016 -25.3418 90.4297 -25.3418 C 89.4043 -25.3418 88.7695 -24.6094 88.623 -23.7305 C 87.6465 -16.2598 81.7383 -11.1328 73.291 -10.8887 L 85.0098 -52.5391 C 86.8652 -50.3906 88.2324 -47.6074 88.5742 -44.8242 C 88.7695 -43.6035 89.4531 -43.0176 90.4297 -43.0176 C 91.5527 -43.0176 92.2363 -43.7988 92.2363 -45.1172 C 92.2363 -45.9473 91.9922 -46.7773 91.748 -47.6074 C 90.7227 -51.123 88.7695 -54.248 86.1328 -56.7383 L 88.5254 -65.1855 C 88.5742 -65.5273 88.6719 -65.8203 88.6719 -66.1133 C 88.6719 -67.1387 87.9883 -67.9199 86.9141 -67.9199 C 86.1328 -67.9199 85.4004 -67.5293 85.1562 -66.5527 L 83.0078 -58.9355 C 80.957 -60.2539 78.5645 -61.084 76.0254 -61.5723 L 77.0508 -65.1855 C 77.1484 -65.4785 77.2461 -65.8203 77.2461 -66.1133 C 77.2461 -67.1387 76.6113 -67.9199 75.4883 -67.9199 C 74.5605 -67.9199 73.9746 -67.3828 73.6816 -66.5527 L 72.3633 -61.8164 C 58.252 -61.7188 49.9512 -51.3672 49.9512 -34.9121 Z M 53.7109 -34.9121 C 53.7109 -48.6816 60.1074 -57.6172 71.3379 -58.1543 L 59.6191 -16.3086 C 55.7617 -20.5078 53.7109 -26.9531 53.7109 -34.9121 Z M 62.5977 -13.6719 L 75.0488 -58.0566 C 77.6367 -57.666 79.9805 -56.7383 82.0312 -55.3223 L 69.6777 -11.0352 C 66.9922 -11.4258 64.6484 -12.3047 62.5977 -13.6719 Z"/>
  </g>
  <g id="Ultralight-L" transform="matrix(1 0 0 1 487.616 1556)">
   <path d="M 72.1191 25.7324 C 105.566 25.7324 132.91 -1.61133 132.91 -35.1074 C 132.91 -68.5547 105.566 -95.8984 72.1191 -95.8984 C 38.623 -95.8984 11.2793 -68.5547 11.2793 -35.1074 C 11.2793 -1.61133 38.623 25.7324 72.1191 25.7324 Z M 72.1191 23.2422 C 39.9414 23.2422 13.7695 -2.97852 13.7695 -35.1074 C 13.7695 -67.2363 39.9414 -93.4082 72.1191 -93.4082 C 104.248 -93.4082 130.42 -67.2363 130.42 -35.1074 C 130.42 -2.97852 104.248 23.2422 72.1191 23.2422 Z M 49.9512 -34.9609 C 49.9512 -25 52.8809 -17.1875 58.3008 -12.6953 L 55.7129 -3.61328 C 55.6641 -3.36914 55.6641 -3.27148 55.6641 -3.125 C 55.6641 -2.14844 56.3965 -1.46484 57.0312 -1.46484 C 57.7637 -1.46484 58.252 -1.85547 58.4961 -2.53906 L 60.8398 -10.791 C 63.0859 -9.57031 65.5273 -8.64258 68.2617 -8.25195 L 66.9434 -3.61328 C 66.8945 -3.36914 66.8945 -3.27148 66.8945 -3.02734 C 66.8945 -1.95312 67.5781 -1.46484 68.2617 -1.46484 C 68.9941 -1.46484 69.4824 -1.85547 69.7266 -2.53906 L 71.2402 -8.00781 C 81.0059 -7.95898 88.4277 -12.8906 90.5273 -21.1426 C 90.7715 -22.0215 91.1133 -23.1445 91.1133 -23.9258 C 91.1133 -24.7559 90.5273 -25.3906 89.5996 -25.3906 C 88.8672 -25.3906 88.3789 -24.8535 88.3301 -24.1211 C 87.4023 -16.1621 81.1035 -10.6934 72.0215 -10.5957 L 84.2773 -53.2227 C 86.4258 -50.6836 87.9395 -47.5098 88.2812 -44.3848 C 88.3789 -43.2129 89.0137 -42.8223 89.7461 -42.8223 C 90.5762 -42.8223 91.0645 -43.457 91.0645 -44.5801 C 91.0645 -45.3613 90.8203 -46.1426 90.5762 -46.9238 C 89.6484 -50.4883 87.7441 -53.6133 85.0586 -56.1523 L 87.5 -64.6973 C 87.5977 -64.9902 87.6953 -65.2344 87.6953 -65.5273 C 87.6953 -66.3574 87.1094 -66.9922 86.2305 -66.9922 C 85.5469 -66.9922 84.9609 -66.748 84.7656 -65.918 L 82.5195 -58.1055 C 80.4199 -59.5215 77.832 -60.4492 75.1953 -60.9375 L 76.2695 -64.6973 C 76.3672 -64.9414 76.4648 -65.2344 76.4648 -65.5273 C 76.4648 -66.3574 75.9277 -66.9922 75 -66.9922 C 74.2676 -66.9922 73.7305 -66.5527 73.5352 -65.918 L 72.1191 -61.1816 C 58.0566 -61.2793 49.9512 -51.1719 49.9512 -34.9609 Z M 52.6855 -34.9609 C 52.6855 -49.1699 59.4238 -58.252 71.3867 -58.4961 L 59.1309 -15.5273 C 54.9316 -19.8242 52.6855 -26.5625 52.6855 -34.9609 Z M 61.6211 -13.5742 L 74.4141 -58.3008 C 77.1484 -57.9102 79.6387 -56.8848 81.7383 -55.4199 L 69.043 -10.791 C 66.2598 -11.1816 63.7695 -12.1094 61.6211 -13.5742 Z"/>
  </g>
  <g id="Black-M" transform="matrix(1 0 0 1 2870.97 1126)">
   <path d="M 62.4023 18.457 C 91.9922 18.457 116.113 -5.61523 116.113 -35.2051 C 116.113 -64.7949 91.9922 -88.8672 62.4023 -88.8672 C 32.8125 -88.8672 8.74023 -64.7949 8.74023 -35.2051 C 8.74023 -5.61523 32.8125 18.457 62.4023 18.457 Z M 62.4023 0.195312 C 42.8711 0.195312 27.002 -15.625 27.002 -35.2051 C 27.002 -54.7363 42.8711 -70.6055 62.4023 -70.6055 C 81.9824 -70.6055 97.8027 -54.7363 97.8027 -35.2051 C 97.8027 -15.625 81.9824 0.195312 62.4023 0.195312 Z M 42.5293 -35.4004 C 42.5293 -25.9277 46.3867 -19.2871 53.0762 -16.3574 L 52.3926 -13.3301 C 52.2949 -13.0859 52.2461 -12.793 52.2461 -12.4023 C 52.2461 -11.377 53.0273 -10.5957 54.0527 -10.5957 C 54.834 -10.5957 55.5176 -11.1816 55.6641 -11.9629 L 56.3965 -15.2832 C 57.2754 -15.0879 58.1543 -14.8926 58.9844 -14.7949 L 58.6426 -13.3301 C 58.4961 -12.7441 58.4961 -12.4512 58.4961 -12.2559 C 58.4961 -11.2305 59.2773 -10.5957 60.3516 -10.5957 C 61.2305 -10.5957 61.7676 -11.1816 61.9629 -11.9629 L 62.5488 -14.5996 C 70.2148 -14.6484 76.8066 -18.5547 79.1016 -24.3652 C 79.541 -25.4395 79.7852 -26.5625 79.7852 -27.6367 C 79.7852 -31.1035 77.3926 -33.3984 73.7305 -33.3984 C 71.0449 -33.3984 69.4824 -32.373 68.2129 -29.5898 C 67.334 -27.7344 66.3086 -26.4648 65.1367 -25.7812 L 68.5547 -40.4297 C 68.6523 -40.2344 68.7988 -39.9902 68.9453 -39.7949 C 70.1172 -38.1348 71.6309 -37.4512 73.877 -37.4512 C 77.2949 -37.4512 79.4922 -39.6484 79.4922 -42.9688 C 79.4922 -44.4824 79.0527 -46.0938 78.2227 -47.5098 C 76.6602 -50.3418 74.4629 -52.5391 71.6309 -53.9551 L 72.4609 -57.5684 C 72.5586 -57.8125 72.6074 -58.1055 72.6074 -58.3496 C 72.6074 -59.4238 71.875 -60.1562 70.8008 -60.1562 C 70.0195 -60.1562 69.3359 -59.5703 69.1406 -58.7891 L 68.3594 -55.2734 C 67.5781 -55.4688 66.6992 -55.6152 65.7715 -55.8105 L 66.2109 -57.6172 C 66.2598 -57.8613 66.3574 -58.2031 66.3574 -58.3496 C 66.3574 -59.4238 65.5762 -60.1562 64.5508 -60.1562 C 63.7695 -60.1562 63.0859 -59.5703 62.8906 -58.7891 L 62.2559 -56.0547 C 49.8535 -56.1035 42.5293 -48.4863 42.5293 -35.4004 Z M 58.9355 -26.0254 L 63.3789 -45.459 C 64.3066 -45.2637 65.1367 -44.873 65.7715 -44.2871 L 61.377 -25.0977 C 60.4492 -25.1953 59.668 -25.5371 58.9355 -26.0254 Z M 55.7129 -35.3516 C 55.7129 -40.3809 57.0801 -43.8477 59.7168 -45.0684 L 56.2988 -30.2246 C 55.8594 -31.6895 55.7129 -33.3984 55.7129 -35.3516 Z"/>
  </g>
  <g id="Heavy-M" transform="matrix(1 0 0 1 2575.19 1126)">
   <path d="M 61.5234 17.5781 C 90.5273 17.5781 114.258 -6.15234 114.258 -35.2051 C 114.258 -64.2578 90.5273 -87.9883 61.4746 -87.9883 C 32.4707 -87.9883 8.74023 -64.2578 8.74023 -35.2051 C 8.74023 -6.15234 32.4707 17.5781 61.5234 17.5781 Z M 61.5234 1.66016 C 41.1133 1.66016 24.6582 -14.8438 24.6582 -35.2051 C 24.6582 -55.5664 41.1133 -72.0703 61.4746 -72.0703 C 81.8848 -72.0703 98.3398 -55.5664 98.3398 -35.2051 C 98.3398 -14.8438 81.8848 1.66016 61.5234 1.66016 Z M 41.6016 -35.2539 C 41.6016 -25.9766 45.166 -19.3848 51.416 -16.1621 L 50.4395 -12.1582 C 50.3906 -11.9141 50.293 -11.5723 50.293 -11.2305 C 50.293 -10.0586 51.1719 -9.27734 52.2461 -9.27734 C 53.125 -9.27734 53.8574 -9.86328 54.0527 -10.7422 L 54.9805 -14.6973 C 55.957 -14.4531 56.9824 -14.209 57.959 -14.0137 L 57.5195 -12.1582 C 57.373 -11.6699 57.373 -11.3281 57.373 -11.1328 C 57.373 -9.96094 58.1543 -9.27734 59.3262 -9.27734 C 60.3027 -9.27734 60.9375 -9.86328 61.1328 -10.7422 L 61.8652 -13.8184 C 69.5801 -13.9648 75.9766 -17.9199 78.2227 -23.7793 C 78.6133 -24.8047 78.8574 -25.8301 78.8574 -26.8555 C 78.8574 -29.9316 76.7578 -31.9824 73.5352 -31.9824 C 71.0938 -31.9824 69.6777 -30.9082 68.5547 -28.4668 C 67.6758 -26.1719 66.1133 -24.5117 64.209 -23.8281 L 68.5547 -41.8457 C 68.75 -41.5527 68.9453 -41.2109 69.0918 -40.8691 C 70.1172 -39.3066 71.4355 -38.5254 73.584 -38.5254 C 76.6113 -38.5254 78.5645 -40.4785 78.5645 -43.457 C 78.5645 -44.7754 78.1738 -46.1914 77.4902 -47.4609 C 76.0254 -50.2441 73.9746 -52.4414 71.3379 -53.9551 L 72.3633 -58.1543 C 72.4609 -58.4473 72.5098 -58.7891 72.5098 -59.0332 C 72.5098 -60.1562 71.7285 -60.9863 70.6055 -60.9863 C 69.6777 -60.9863 68.9453 -60.4004 68.75 -59.4727 L 67.8223 -55.5664 C 66.8945 -55.8594 65.918 -56.1035 64.8438 -56.2988 L 65.332 -58.2031 C 65.3809 -58.4961 65.4297 -58.8379 65.4297 -59.0332 C 65.4297 -60.1562 64.6484 -60.9863 63.5254 -60.9863 C 62.6465 -60.9863 61.9141 -60.4004 61.6699 -59.4727 L 60.9863 -56.543 C 48.877 -56.3965 41.6016 -48.4375 41.6016 -35.2539 Z M 57.2754 -24.3652 L 62.6953 -47.0215 C 63.7207 -46.8262 64.6973 -46.4355 65.5273 -45.752 L 60.1562 -23.2422 C 59.082 -23.3887 58.1055 -23.7793 57.2754 -24.3652 Z M 53.2227 -35.2051 C 53.2227 -41.2109 55.1758 -45.3613 58.6426 -46.6797 L 54.3457 -28.6133 C 53.5645 -30.4199 53.2227 -32.6172 53.2227 -35.2051 Z"/>
  </g>
  <g id="Bold-M" transform="matrix(1 0 0 1 2279.5 1126)">
   <path d="M 60.498 16.5039 C 88.8672 16.5039 112.207 -6.78711 112.207 -35.2051 C 112.207 -63.623 88.8672 -86.9629 60.4492 -86.9629 C 32.0312 -86.9629 8.74023 -63.623 8.74023 -35.2051 C 8.74023 -6.78711 32.0801 16.5039 60.498 16.5039 Z M 60.498 3.22266 C 39.1602 3.22266 22.0703 -13.916 22.0703 -35.2051 C 22.0703 -56.4941 39.1602 -73.6816 60.4492 -73.6816 C 81.7383 -73.6816 98.9258 -56.4941 98.9258 -35.2051 C 98.9746 -13.916 81.7871 3.22266 60.498 3.22266 Z M 40.5762 -35.1074 C 40.5762 -26.0742 43.8477 -19.4336 49.5605 -15.9668 L 48.291 -10.8887 C 48.1934 -10.5957 48.1445 -10.2539 48.1445 -9.91211 C 48.1445 -8.64258 49.0234 -7.76367 50.1953 -7.76367 C 51.2207 -7.76367 52.002 -8.34961 52.2949 -9.42383 L 53.418 -14.0625 C 54.4922 -13.6719 55.6641 -13.3789 56.8359 -13.1836 L 56.25 -10.8887 C 56.1523 -10.4004 56.1035 -10.1074 56.1035 -9.81445 C 56.1035 -8.59375 56.9336 -7.76367 58.2031 -7.76367 C 59.2285 -7.76367 59.9609 -8.34961 60.2539 -9.42383 L 61.1328 -12.9395 C 68.8965 -13.1836 75 -17.1875 77.2461 -23.1445 C 77.6367 -24.0723 77.832 -25.0488 77.832 -26.0254 C 77.832 -28.6133 76.0742 -30.4199 73.291 -30.4199 C 71.1426 -30.4199 69.873 -29.3457 68.9941 -27.1973 C 68.0176 -24.3652 65.918 -22.2656 63.1348 -21.6309 L 68.5547 -43.3594 C 68.8477 -43.0664 69.0918 -42.5781 69.2871 -42.041 C 70.1172 -40.5762 71.2402 -39.6973 73.1934 -39.6973 C 75.8301 -39.6973 77.4902 -41.4062 77.4902 -43.9453 C 77.4902 -45.1172 77.1973 -46.3379 76.6602 -47.4121 C 75.3906 -50.1465 73.4863 -52.3438 71.0449 -53.9551 L 72.2656 -58.8379 C 72.3633 -59.1797 72.4121 -59.5215 72.4121 -59.8145 C 72.4121 -61.0352 71.582 -61.9141 70.3613 -61.9141 C 69.3359 -61.9141 68.5547 -61.3281 68.2617 -60.2539 L 67.1875 -55.957 C 66.1621 -56.3477 64.9902 -56.6406 63.8184 -56.8359 L 64.3066 -58.8867 C 64.4043 -59.2285 64.4531 -59.5215 64.4531 -59.8145 C 64.4531 -61.0352 63.623 -61.9141 62.3535 -61.9141 C 61.377 -61.9141 60.5469 -61.3281 60.3027 -60.2539 L 59.5215 -57.0801 C 47.8027 -56.6895 40.5762 -48.3887 40.5762 -35.1074 Z M 55.4199 -22.4609 L 61.8652 -48.7793 C 63.0859 -48.584 64.209 -48.0957 65.1855 -47.4121 L 58.7402 -21.1914 C 57.4707 -21.3867 56.3965 -21.8262 55.4199 -22.4609 Z M 50.4395 -35.0586 C 50.4395 -42.0898 53.0273 -47.0215 57.4707 -48.4375 L 52.1484 -26.7578 C 51.0254 -28.9551 50.4395 -31.7383 50.4395 -35.0586 Z"/>
  </g>
  <g id="Semibold-M" transform="matrix(1 0 0 1 1983.5 1126)">
   <path d="M 59.7656 15.8203 C 87.7441 15.8203 110.791 -7.22656 110.791 -35.2051 C 110.791 -63.1836 87.6953 -86.2793 59.7656 -86.2793 C 31.7871 -86.2793 8.74023 -63.1836 8.74023 -35.2051 C 8.74023 -7.22656 31.7871 15.8203 59.7656 15.8203 Z M 59.7656 4.3457 C 37.8418 4.3457 20.2637 -13.2812 20.2637 -35.2051 C 20.2637 -57.1289 37.793 -74.8047 59.7656 -74.8047 C 81.6895 -74.8047 99.3164 -57.1289 99.3652 -35.2051 C 99.3652 -13.2812 81.6895 4.3457 59.7656 4.3457 Z M 39.8926 -34.9609 C 39.8926 -26.123 42.9199 -19.5312 48.2422 -15.8203 L 46.7773 -10.0098 C 46.6797 -9.66797 46.6309 -9.32617 46.6309 -8.98438 C 46.6309 -7.66602 47.5586 -6.73828 48.8281 -6.73828 C 49.9023 -6.73828 50.7324 -7.32422 51.0254 -8.49609 L 52.2949 -13.623 C 53.4668 -13.1836 54.7363 -12.8418 56.0547 -12.5977 L 55.3711 -9.96094 C 55.2734 -9.52148 55.2246 -9.22852 55.2246 -8.93555 C 55.2246 -7.61719 56.1035 -6.73828 57.4219 -6.73828 C 58.5449 -6.73828 59.3262 -7.32422 59.6191 -8.49609 L 60.5957 -12.3535 C 68.4082 -12.6465 74.3652 -16.6992 76.5625 -22.7051 C 76.9043 -23.584 77.1484 -24.5117 77.1484 -25.3906 C 77.1484 -27.7344 75.5859 -29.3457 73.1445 -29.3457 C 71.1426 -29.3457 70.0195 -28.2227 69.2383 -26.3184 C 68.2617 -23.1445 65.7715 -20.752 62.4512 -20.1172 L 68.5547 -44.4336 C 68.8965 -44.0918 69.1895 -43.5059 69.3848 -42.8223 C 70.1172 -41.5039 71.0938 -40.4785 72.998 -40.4785 C 75.293 -40.4785 76.8066 -41.9922 76.8066 -44.2871 C 76.8066 -45.3613 76.5137 -46.3867 76.0742 -47.4121 C 74.9023 -50.0488 73.1445 -52.2949 70.8496 -53.9551 L 72.168 -59.3262 C 72.2656 -59.668 72.3633 -60.0098 72.3633 -60.3027 C 72.3633 -61.6211 71.4844 -62.5488 70.166 -62.5488 C 69.0918 -62.5488 68.2617 -61.9629 67.9688 -60.791 L 66.7969 -56.1523 C 65.6738 -56.6406 64.4043 -56.9824 63.0859 -57.2266 L 63.623 -59.375 C 63.7207 -59.7168 63.7695 -60.0098 63.7695 -60.3027 C 63.7695 -61.6211 62.8906 -62.5488 61.5723 -62.5488 C 60.498 -62.5488 59.668 -61.9629 59.375 -60.791 L 58.5449 -57.4219 C 47.0703 -56.8848 39.8926 -48.3887 39.8926 -34.9609 Z M 54.1504 -21.1914 L 61.3281 -50 C 62.6465 -49.7559 63.8672 -49.2676 64.9902 -48.584 L 57.8125 -19.7754 C 56.3965 -20.0195 55.2246 -20.459 54.1504 -21.1914 Z M 48.5352 -34.9609 C 48.5352 -42.7246 51.5625 -48.1934 56.6406 -49.6582 L 50.6348 -25.5371 C 49.2676 -27.9785 48.5352 -31.1523 48.5352 -34.9609 Z"/>
  </g>
  <g id="Medium-M" transform="matrix(1 0 0 1 1687.3 1126)">
   <path d="M 59.2285 15.2832 C 86.9141 15.2832 109.766 -7.56836 109.766 -35.2051 C 109.766 -62.8906 86.8652 -85.7422 59.1797 -85.7422 C 31.543 -85.7422 8.74023 -62.8906 8.74023 -35.2051 C 8.74023 -7.56836 31.5918 15.2832 59.2285 15.2832 Z M 59.2285 5.17578 C 36.8164 5.17578 18.8965 -12.8418 18.8965 -35.2051 C 18.8965 -57.6172 36.8164 -75.6348 59.1797 -75.6348 C 81.5918 -75.6348 99.6094 -57.6172 99.6582 -35.2051 C 99.707 -12.8418 81.6406 5.17578 59.2285 5.17578 Z M 39.3066 -34.8633 C 39.3066 -26.1719 42.2363 -19.5312 47.2656 -15.7227 L 45.6543 -9.32617 C 45.5566 -8.98438 45.5078 -8.64258 45.5078 -8.30078 C 45.5078 -6.93359 46.4355 -5.95703 47.7539 -5.95703 C 48.877 -5.95703 49.7559 -6.5918 50.0977 -7.76367 L 51.4648 -13.3301 C 52.7344 -12.793 54.0527 -12.4023 55.4688 -12.1582 L 54.7363 -9.32617 C 54.5898 -8.88672 54.5898 -8.59375 54.5898 -8.25195 C 54.5898 -6.88477 55.4199 -5.95703 56.8359 -5.95703 C 57.959 -5.95703 58.8379 -6.5918 59.1309 -7.76367 L 60.2051 -11.9141 C 68.0176 -12.207 73.877 -16.3086 76.0742 -22.3633 C 76.3672 -23.1934 76.6113 -24.1211 76.6113 -24.9512 C 76.6113 -27.0508 75.1953 -28.5156 73.0469 -28.5156 C 71.1914 -28.5156 70.1172 -27.3926 69.4824 -25.6836 C 68.4082 -22.2168 65.625 -19.5801 61.8652 -18.9453 L 68.5547 -45.2637 C 68.9453 -44.873 69.2871 -44.1895 69.4824 -43.457 C 70.166 -42.1875 70.9961 -41.1133 72.8027 -41.1133 C 74.9023 -41.1133 76.2695 -42.4805 76.2695 -44.5801 C 76.2695 -45.5078 76.0254 -46.4844 75.6348 -47.3633 C 74.5605 -50 72.9004 -52.2461 70.7031 -53.9551 L 72.1191 -59.7168 C 72.2168 -60.0586 72.3145 -60.4004 72.3145 -60.7422 C 72.3145 -62.0605 71.3867 -63.0371 70.0195 -63.0371 C 68.8965 -63.0371 68.0176 -62.4512 67.7246 -61.2305 L 66.4551 -56.3477 C 65.2832 -56.8848 63.916 -57.2266 62.5488 -57.5195 L 63.0859 -59.7168 C 63.1836 -60.0586 63.2324 -60.4004 63.2324 -60.7422 C 63.2324 -62.0605 62.3535 -63.0371 60.9863 -63.0371 C 59.8633 -63.0371 58.9844 -62.4023 58.6426 -61.2305 L 57.8125 -57.7148 C 46.4844 -57.0801 39.3066 -48.3887 39.3066 -34.8633 Z M 53.1738 -20.2148 L 60.8887 -50.8789 C 62.3047 -50.6836 63.623 -50.1953 64.7949 -49.4629 L 57.0801 -18.7012 C 55.5664 -18.9453 54.2969 -19.4336 53.1738 -20.2148 Z M 47.0703 -34.8633 C 47.0703 -43.2129 50.4395 -49.0723 56.0059 -50.5859 L 49.4629 -24.5605 C 47.9004 -27.1973 47.0703 -30.7129 47.0703 -34.8633 Z"/>
  </g>
  <g id="Regular-M" transform="matrix(1 0 0 1 1391.3 1126)">
   <path d="M 58.5449 14.5508 C 85.791 14.5508 108.35 -8.00781 108.35 -35.2539 C 108.35 -62.4512 85.7422 -85.0586 58.4961 -85.0586 C 31.2988 -85.0586 8.74023 -62.4512 8.74023 -35.2539 C 8.74023 -8.00781 31.3477 14.5508 58.5449 14.5508 Z M 58.5449 6.25 C 35.498 6.25 17.0898 -12.207 17.0898 -35.2539 C 17.0898 -58.252 35.4492 -76.7578 58.4961 -76.7578 C 81.543 -76.7578 100 -58.252 100.049 -35.2539 C 100.098 -12.207 81.5918 6.25 58.5449 6.25 Z M 38.623 -34.7656 C 38.623 -26.2207 41.3086 -19.5801 45.9961 -15.5762 L 44.1895 -8.44727 C 44.0918 -8.10547 44.043 -7.71484 44.043 -7.42188 C 44.043 -5.95703 45.0195 -4.93164 46.3867 -4.93164 C 47.6074 -4.93164 48.5352 -5.56641 48.877 -6.88477 L 50.3906 -12.8906 C 51.709 -12.3047 53.125 -11.8652 54.6875 -11.5723 L 53.8574 -8.39844 C 53.7598 -8.05664 53.7109 -7.71484 53.7109 -7.37305 C 53.7109 -5.9082 54.5898 -4.93164 56.0547 -4.93164 C 57.2754 -4.93164 58.2031 -5.56641 58.5449 -6.88477 L 59.668 -11.2793 C 67.5781 -11.6699 73.2422 -15.7715 75.3906 -21.9238 C 75.6836 -22.7051 75.8789 -23.584 75.8789 -24.3652 C 75.8789 -26.1719 74.707 -27.4414 72.9004 -27.4414 C 71.2402 -27.4414 70.2637 -26.3184 69.7266 -24.8047 C 68.6523 -20.9961 65.4785 -18.0664 61.1816 -17.4805 L 68.5547 -46.3379 C 68.9941 -45.8984 69.3848 -45.1172 69.6289 -44.2383 C 70.166 -43.0664 70.8496 -41.8945 72.5586 -41.8945 C 74.3652 -41.8945 75.5371 -43.1152 75.5371 -44.9219 C 75.5371 -45.752 75.3418 -46.582 75.0488 -47.3145 C 74.1211 -49.9023 72.5098 -52.1484 70.459 -53.9551 L 72.0703 -60.1562 C 72.168 -60.5469 72.2168 -60.8887 72.2168 -61.2305 C 72.2168 -62.6465 71.2891 -63.6719 69.873 -63.6719 C 68.6523 -63.6719 67.7246 -63.0859 67.3828 -61.7676 L 66.0645 -56.5918 C 64.7949 -57.2266 63.3301 -57.6172 61.8164 -57.8613 L 62.4023 -60.1562 C 62.5 -60.5469 62.5488 -60.8887 62.5488 -61.2305 C 62.5488 -62.6465 61.6211 -63.6719 60.2051 -63.6719 C 58.9844 -63.6719 58.0566 -63.0371 57.7148 -61.7676 L 56.8359 -58.0566 C 45.752 -57.2754 38.623 -48.3398 38.623 -34.7656 Z M 51.9043 -18.9453 L 60.3516 -52.0996 C 61.8652 -51.9043 63.2812 -51.3184 64.5996 -50.5859 L 56.1523 -17.2852 C 54.4922 -17.5781 53.125 -18.1152 51.9043 -18.9453 Z M 45.166 -34.7656 C 45.166 -43.8477 48.9746 -50.1953 55.1758 -51.7578 L 47.9492 -23.291 C 46.1426 -26.2207 45.166 -30.127 45.166 -34.7656 Z"/>
  </g>
  <g id="Light-M" transform="matrix(1 0 0 1 1095.42 1126)">
   <path d="M 57.7148 13.7695 C 84.5215 13.7695 106.689 -8.39844 106.689 -35.2051 C 106.689 -62.0117 84.5215 -84.1797 57.666 -84.1797 C 30.8594 -84.1797 8.74023 -62.0117 8.74023 -35.2051 C 8.74023 -8.39844 30.9082 13.7695 57.7148 13.7695 Z M 57.7148 7.4707 C 34.082 7.4707 15.0879 -11.5723 15.0879 -35.2051 C 15.0879 -58.8379 34.082 -77.832 57.666 -77.832 C 81.2988 -77.832 100.342 -58.8379 100.391 -35.2051 C 100.391 -11.5723 81.3477 7.4707 57.7148 7.4707 Z M 38.6719 -34.8633 C 38.6719 -26.5625 41.2109 -20.1172 45.752 -16.2598 L 43.8965 -9.17969 C 43.7988 -8.83789 43.75 -8.54492 43.75 -8.30078 C 43.75 -7.08008 44.5801 -6.25 45.7031 -6.25 C 46.7285 -6.25 47.4609 -6.73828 47.7539 -7.8125 L 49.3652 -13.916 C 50.8301 -13.2324 52.3926 -12.6953 54.1016 -12.4512 L 53.2715 -9.13086 C 53.1738 -8.83789 53.125 -8.54492 53.125 -8.30078 C 53.125 -7.03125 53.9062 -6.25 55.0781 -6.25 C 56.1035 -6.25 56.8359 -6.73828 57.1289 -7.8125 L 58.3008 -12.1582 C 66.0645 -12.4512 71.7773 -16.4551 73.7793 -22.6562 C 74.0234 -23.3887 74.2676 -24.2676 74.2676 -25.0488 C 74.2676 -26.4648 73.291 -27.4902 71.8262 -27.4902 C 70.5078 -27.4902 69.6777 -26.5625 69.3359 -25.3906 C 68.3594 -20.8008 64.6484 -17.4805 59.5215 -17.041 L 67.5293 -47.2168 C 68.3594 -46.2891 68.9941 -45.0195 69.2383 -43.6523 C 69.6289 -42.5781 70.2637 -41.6504 71.6309 -41.6504 C 73.0957 -41.6504 74.0234 -42.627 74.0234 -44.1406 C 74.0234 -44.9219 73.8281 -45.6543 73.584 -46.3867 C 72.7051 -49.0234 71.1426 -51.3184 69.043 -53.1738 L 70.752 -59.5215 C 70.8496 -59.8633 70.8984 -60.1562 70.8984 -60.4492 C 70.8984 -61.6211 70.1172 -62.5 68.8965 -62.5 C 67.9199 -62.5 67.1387 -62.0117 66.8457 -60.8887 L 65.3809 -55.4688 C 64.0137 -56.25 62.4023 -56.7383 60.7422 -57.0312 L 61.377 -59.5215 C 61.4746 -59.8145 61.5234 -60.1562 61.5234 -60.4492 C 61.5234 -61.6211 60.791 -62.5 59.5215 -62.5 C 58.5449 -62.5 57.7637 -61.9629 57.4707 -60.8887 L 56.543 -57.2266 C 45.5078 -56.6895 38.6719 -48.0957 38.6719 -34.8633 Z M 50.6348 -18.7988 L 59.5215 -52.3926 C 61.2305 -52.1484 62.793 -51.5625 64.209 -50.6836 L 55.3223 -16.9922 C 53.5156 -17.2852 51.9531 -17.8711 50.6348 -18.7988 Z M 43.7988 -34.8633 C 43.7988 -44.5312 48.0469 -51.0742 55.2246 -52.2461 L 47.3145 -22.2656 C 45.0684 -25.293 43.7988 -29.6387 43.7988 -34.8633 Z"/>
  </g>
  <g id="Thin-M" transform="matrix(1 0 0 1 799.806 1126)">
   <path d="M 56.6406 12.7441 C 82.9102 12.7441 104.492 -8.83789 104.492 -35.1562 C 104.492 -61.4746 82.9102 -83.0566 56.5918 -83.0566 C 30.3223 -83.0566 8.74023 -61.4746 8.74023 -35.1562 C 8.74023 -8.83789 30.3223 12.7441 56.6406 12.7441 Z M 56.6406 8.98438 C 32.2266 8.98438 12.4512 -10.791 12.4512 -35.1562 C 12.4512 -59.5215 32.2266 -79.2969 56.5918 -79.2969 C 81.0059 -79.2969 100.781 -59.5215 100.781 -35.1562 C 100.781 -10.791 81.0059 8.98438 56.6406 8.98438 Z M 38.7207 -34.9609 C 38.7207 -27.002 41.0645 -20.8008 45.4102 -17.1387 L 43.457 -10.1074 C 43.4082 -9.86328 43.3594 -9.66797 43.3594 -9.52148 C 43.3594 -8.59375 44.0918 -7.91016 44.8242 -7.91016 C 45.5566 -7.91016 46.0938 -8.30078 46.3379 -9.0332 L 48.0469 -15.332 C 49.6582 -14.502 51.4648 -13.8672 53.3691 -13.5254 L 52.4414 -10.0586 C 52.3438 -9.86328 52.3438 -9.66797 52.3438 -9.47266 C 52.3438 -8.44727 52.9785 -7.91016 53.8086 -7.91016 C 54.541 -7.91016 55.0781 -8.30078 55.2734 -9.0332 L 56.4453 -13.3301 C 64.1113 -13.4277 69.873 -17.334 71.6309 -23.6328 C 71.8262 -24.3652 72.0703 -25.1953 72.0703 -25.8789 C 72.0703 -26.8555 71.4355 -27.5879 70.4102 -27.5879 C 69.5312 -27.5879 68.9941 -26.9531 68.7988 -26.123 C 68.0176 -20.6055 63.5742 -16.748 57.3242 -16.5039 L 66.2109 -48.3398 C 67.5293 -46.8262 68.5059 -44.873 68.75 -42.8711 C 68.9453 -41.8945 69.4824 -41.3574 70.4102 -41.3574 C 71.3867 -41.3574 71.9727 -42.041 71.9727 -43.1641 C 71.9727 -43.7988 71.7773 -44.4824 71.582 -45.1172 C 70.8008 -47.8516 69.2383 -50.2441 67.1875 -52.1484 L 68.9941 -58.6426 C 69.0918 -58.9355 69.1406 -59.1797 69.1406 -59.4238 C 69.1406 -60.2539 68.5547 -60.9375 67.6758 -60.9375 C 66.9922 -60.9375 66.3574 -60.5957 66.1621 -59.7656 L 64.5508 -53.9551 C 62.9883 -54.9316 61.1816 -55.5664 59.2773 -55.9082 L 60.0586 -58.6426 C 60.1074 -58.8867 60.1562 -59.1797 60.1562 -59.4238 C 60.1562 -60.2539 59.6191 -60.9375 58.6914 -60.9375 C 57.959 -60.9375 57.4219 -60.498 57.1777 -59.7656 L 56.1523 -56.1035 C 45.2148 -55.957 38.7207 -47.8027 38.7207 -34.9609 Z M 42.041 -34.9609 C 42.041 -45.4102 46.875 -52.2949 55.2734 -52.8809 L 46.4355 -20.8984 C 43.6035 -24.1211 42.041 -28.9551 42.041 -34.9609 Z M 48.9258 -18.6035 L 58.4473 -52.832 C 60.3516 -52.5391 62.1582 -51.8066 63.7207 -50.7812 L 54.248 -16.5527 C 52.2461 -16.8945 50.4395 -17.5293 48.9258 -18.6035 Z"/>
  </g>
  <g id="Ultralight-M" transform="matrix(1 0 0 1 503.656 1126)">
   <path d="M 56.0547 12.207 C 82.0801 12.207 103.369 -9.08203 103.369 -35.1562 C 103.369 -61.1816 82.0801 -82.4707 56.0547 -82.4707 C 30.0293 -82.4707 8.74023 -61.1816 8.74023 -35.1562 C 8.74023 -9.08203 30.0293 12.207 56.0547 12.207 Z M 56.0547 9.81445 C 31.2988 9.81445 11.1328 -10.3516 11.1328 -35.1562 C 11.1328 -59.9121 31.2988 -80.0781 56.0547 -80.0781 C 80.8594 -80.0781 100.977 -59.9121 100.977 -35.1562 C 100.977 -10.3516 80.8594 9.81445 56.0547 9.81445 Z M 38.7207 -35.0098 C 38.7207 -27.2461 41.0156 -21.1426 45.2637 -17.5781 L 43.2617 -10.5469 C 43.2129 -10.3516 43.2129 -10.2539 43.2129 -10.1562 C 43.2129 -9.32617 43.7988 -8.78906 44.3359 -8.78906 C 44.9707 -8.78906 45.4102 -9.08203 45.5566 -9.7168 L 47.4121 -16.0645 C 49.0723 -15.1367 50.9766 -14.4531 53.0273 -14.1113 L 52.002 -10.5469 C 51.9531 -10.3516 51.9531 -10.2539 51.9531 -10.0586 C 51.9531 -9.22852 52.5391 -8.78906 53.125 -8.78906 C 53.7598 -8.78906 54.1504 -9.08203 54.3457 -9.7168 L 55.5176 -13.916 C 63.1348 -13.916 68.8477 -17.7734 70.5566 -24.1699 C 70.7031 -24.8535 70.9961 -25.6836 70.9961 -26.3184 C 70.9961 -27.0508 70.5078 -27.5879 69.6777 -27.5879 C 69.043 -27.5879 68.6035 -27.0996 68.5547 -26.5137 C 67.8223 -20.459 63.0371 -16.3574 56.2012 -16.2109 L 65.5273 -48.9746 C 67.0898 -47.1191 68.2617 -44.7754 68.5059 -42.4805 C 68.6035 -41.5039 69.0918 -41.1621 69.7754 -41.1621 C 70.5078 -41.1621 70.8984 -41.6992 70.8984 -42.627 C 70.8984 -43.2617 70.752 -43.8965 70.5566 -44.4824 C 69.8242 -47.2168 68.3105 -49.6582 66.2598 -51.6113 L 68.1152 -58.2031 C 68.1641 -58.4473 68.2617 -58.6426 68.2617 -58.8867 C 68.2617 -59.5703 67.7734 -60.1074 67.041 -60.1074 C 66.4551 -60.1074 65.9668 -59.8633 65.8203 -59.2285 L 64.1113 -53.2227 C 62.5 -54.2969 60.5469 -54.9805 58.5449 -55.3223 L 59.375 -58.2031 C 59.4238 -58.3984 59.4727 -58.6426 59.4727 -58.8867 C 59.4727 -59.5703 59.0332 -60.1074 58.252 -60.1074 C 57.6172 -60.1074 57.2266 -59.7656 57.0312 -59.2285 L 55.957 -55.5176 C 45.0684 -55.5664 38.7207 -47.6562 38.7207 -35.0098 Z M 41.1133 -35.0098 C 41.1133 -45.8984 46.2891 -52.8809 55.3223 -53.1738 L 45.9961 -20.166 C 42.8223 -23.4863 41.1133 -28.6133 41.1133 -35.0098 Z M 48.0469 -18.5059 L 57.8613 -53.0273 C 59.9121 -52.7344 61.8164 -51.9531 63.4277 -50.8301 L 53.7109 -16.3574 C 51.5625 -16.6504 49.707 -17.3828 48.0469 -18.5059 Z"/>
  </g>
  <g id="Black-S" transform="matrix(1 0 0 1 2884.57 696)">
   <path d="M 48.8281 6.78711 C 71.9727 6.78711 90.8203 -12.0605 90.8203 -35.2051 C 90.8203 -58.3496 71.9727 -77.1973 48.8281 -77.1973 C 25.6836 -77.1973 6.83594 -58.3496 6.83594 -35.2051 C 6.83594 -12.0605 25.6836 6.78711 48.8281 6.78711 Z M 48.8281 -7.37305 C 33.4473 -7.37305 20.9961 -19.8242 20.9961 -35.2051 C 20.9961 -50.5859 33.4473 -63.0371 48.8281 -63.0371 C 64.209 -63.0371 76.6602 -50.5859 76.6602 -35.2051 C 76.6602 -19.8242 64.209 -7.37305 48.8281 -7.37305 Z M 33.252 -35.3516 C 33.252 -27.9297 36.2305 -22.7539 41.4551 -20.4102 L 40.8691 -17.9688 C 40.8203 -17.7734 40.7715 -17.5293 40.7715 -17.2363 C 40.7715 -16.4062 41.4062 -15.8203 42.1875 -15.8203 C 42.8223 -15.8203 43.3594 -16.2598 43.5059 -16.8945 L 44.0918 -19.5312 C 44.7754 -19.3848 45.459 -19.2383 46.1426 -19.1406 L 45.8496 -17.9688 C 45.752 -17.5293 45.752 -17.2852 45.752 -17.1387 C 45.752 -16.3086 46.3379 -15.8203 47.2168 -15.8203 C 47.9004 -15.8203 48.3398 -16.2598 48.4863 -16.8945 L 48.9746 -18.9941 C 54.9805 -19.043 60.1074 -22.1191 61.9141 -26.6602 C 62.2559 -27.4902 62.4512 -28.3691 62.4512 -29.1992 C 62.4512 -31.8848 60.5957 -33.6914 57.7637 -33.6914 C 55.6641 -33.6914 54.4434 -32.8613 53.4668 -30.7129 C 52.7832 -29.248 51.9531 -28.2227 50.9766 -27.6855 L 53.7109 -39.4043 C 53.8086 -39.2578 53.9062 -39.0625 54.0039 -38.916 C 54.9316 -37.5977 56.1035 -37.0605 57.8613 -37.0605 C 60.498 -37.0605 62.207 -38.7695 62.207 -41.3574 C 62.207 -42.5293 61.8652 -43.75 61.2305 -44.873 C 60.0098 -47.0703 58.3008 -48.7793 56.1035 -49.9023 L 56.7871 -52.7832 C 56.8359 -52.9785 56.8848 -53.2227 56.8848 -53.418 C 56.8848 -54.248 56.2988 -54.834 55.4688 -54.834 C 54.834 -54.834 54.2969 -54.3945 54.1504 -53.7598 L 53.5156 -50.9766 C 52.8809 -51.123 52.1973 -51.2695 51.4648 -51.416 L 51.8066 -52.832 C 51.8555 -53.0273 51.9043 -53.2715 51.9043 -53.418 C 51.9043 -54.248 51.3184 -54.834 50.4883 -54.834 C 49.8535 -54.834 49.3164 -54.3945 49.1699 -53.7598 L 48.6816 -51.6113 C 38.9648 -51.6113 33.252 -45.6055 33.252 -35.3516 Z M 46.0449 -27.8809 L 49.6094 -43.3594 C 50.3418 -43.2129 50.9766 -42.9199 51.5137 -42.4316 L 47.998 -27.1484 C 47.2656 -27.2461 46.6309 -27.4902 46.0449 -27.8809 Z M 43.457 -35.3027 C 43.457 -39.3066 44.5801 -42.0898 46.6797 -43.0664 L 43.9453 -31.2012 C 43.6035 -32.373 43.457 -33.7402 43.457 -35.3027 Z"/>
  </g>
  <g id="Heavy-S" transform="matrix(1 0 0 1 2588.47 696)">
   <path d="M 48.2422 6.15234 C 70.9961 6.15234 89.5996 -12.4512 89.5996 -35.2051 C 89.5996 -57.959 70.9961 -76.6113 48.1934 -76.6113 C 25.4395 -76.6113 6.83594 -57.959 6.83594 -35.2051 C 6.83594 -12.4512 25.4395 6.15234 48.2422 6.15234 Z M 48.2422 -6.39648 C 32.2754 -6.39648 19.4336 -19.2871 19.4336 -35.2051 C 19.4336 -51.1719 32.2754 -64.0137 48.1934 -64.0137 C 64.1602 -64.0137 77.002 -51.1719 77.0508 -35.2051 C 77.0508 -19.2871 64.1602 -6.39648 48.2422 -6.39648 Z M 32.5195 -35.2051 C 32.5195 -27.9297 35.3516 -22.7539 40.1855 -20.2148 L 39.4531 -16.9922 C 39.3555 -16.7969 39.3066 -16.5039 39.3066 -16.2109 C 39.3066 -15.2832 39.9902 -14.6484 40.8691 -14.6484 C 41.6016 -14.6484 42.2363 -15.1367 42.3828 -15.8691 L 43.1152 -18.9941 C 43.8477 -18.75 44.6289 -18.6035 45.4102 -18.457 L 45.0684 -16.9922 C 44.9707 -16.6016 44.9707 -16.3574 44.9707 -16.1621 C 44.9707 -15.2344 45.5566 -14.6484 46.5332 -14.6484 C 47.3145 -14.6484 47.8516 -15.1367 47.998 -15.8691 L 48.584 -18.3105 C 54.6387 -18.4082 59.6191 -21.5332 61.4258 -26.123 C 61.7676 -26.9043 61.9141 -27.7344 61.9141 -28.5645 C 61.9141 -30.957 60.2539 -32.6172 57.7148 -32.6172 C 55.7617 -32.6172 54.6387 -31.7383 53.8086 -29.7852 C 53.0273 -28.0273 51.9043 -26.7578 50.4395 -26.2207 L 53.8086 -40.3809 C 53.9551 -40.2344 54.0527 -39.9902 54.1504 -39.7949 C 54.9805 -38.5254 56.0059 -37.8906 57.7148 -37.8906 C 60.1074 -37.8906 61.6699 -39.4531 61.6699 -41.7969 C 61.6699 -42.8223 61.377 -43.9453 60.8398 -44.9219 C 59.7168 -47.1191 58.1055 -48.8281 56.0547 -50 L 56.8359 -53.3203 C 56.9336 -53.5645 56.9824 -53.8086 56.9824 -54.0039 C 56.9824 -54.9316 56.3477 -55.6152 55.4199 -55.6152 C 54.6875 -55.6152 54.0527 -55.127 53.9062 -54.3945 L 53.1738 -51.3184 C 52.4414 -51.5625 51.709 -51.709 50.8789 -51.9043 L 51.2207 -53.3691 C 51.2695 -53.6133 51.3184 -53.8574 51.3184 -54.0039 C 51.3184 -54.9316 50.6836 -55.6152 49.7559 -55.6152 C 49.0234 -55.6152 48.4375 -55.127 48.2422 -54.3945 L 47.7051 -52.0508 C 38.2324 -51.9043 32.5195 -45.6055 32.5195 -35.2051 Z M 44.9219 -26.6113 L 49.1699 -44.5312 C 49.9512 -44.3848 50.6836 -44.043 51.3184 -43.5547 L 47.1191 -25.7812 C 46.2891 -25.8789 45.5566 -26.1719 44.9219 -26.6113 Z M 41.6992 -35.2051 C 41.6992 -39.8438 43.2129 -43.1152 45.8496 -44.2383 L 42.5293 -30.0781 C 41.9922 -31.4941 41.6992 -33.2031 41.6992 -35.2051 Z"/>
  </g>
  <g id="Bold-S" transform="matrix(1 0 0 1 2292.44 696)">
   <path d="M 47.5586 5.46875 C 69.873 5.46875 88.2324 -12.8906 88.2324 -35.2051 C 88.2324 -57.5684 69.873 -75.9277 47.5098 -75.9277 C 25.1953 -75.9277 6.83594 -57.5684 6.83594 -35.2051 C 6.83594 -12.8906 25.1953 5.46875 47.5586 5.46875 Z M 47.5586 -5.32227 C 30.957 -5.32227 17.6758 -18.6523 17.6758 -35.2051 C 17.6758 -51.8066 30.957 -65.1367 47.5098 -65.1367 C 64.1113 -65.1367 77.4414 -51.8066 77.4414 -35.2051 C 77.4414 -18.6523 64.1113 -5.32227 47.5586 -5.32227 Z M 31.7383 -35.1074 C 31.7383 -27.9785 34.3262 -22.7539 38.8184 -19.9707 L 37.8418 -15.9668 C 37.7441 -15.6738 37.6953 -15.3809 37.6953 -15.0879 C 37.6953 -14.0625 38.4277 -13.3789 39.4043 -13.3789 C 40.2832 -13.3789 40.918 -13.8184 41.1621 -14.7461 L 41.9922 -18.3594 C 42.8711 -18.1152 43.7012 -17.8711 44.6289 -17.7246 L 44.1895 -15.918 C 44.0918 -15.5273 44.043 -15.2832 44.043 -15.0391 C 44.043 -14.0137 44.7266 -13.3789 45.8008 -13.3789 C 46.6797 -13.3789 47.2656 -13.8184 47.5098 -14.7461 L 48.1934 -17.5293 C 54.2969 -17.7246 59.082 -20.8984 60.8887 -25.5371 C 61.1816 -26.2695 61.3281 -27.0508 61.3281 -27.832 C 61.3281 -29.9316 59.9121 -31.3965 57.666 -31.3965 C 55.9082 -31.3965 54.8828 -30.4688 54.1504 -28.7598 C 53.3691 -26.709 51.8066 -25.1465 49.8535 -24.6094 L 53.9551 -41.4551 C 54.1016 -41.3086 54.1992 -41.0645 54.3457 -40.7715 C 55.0781 -39.5996 55.957 -38.8184 57.5684 -38.8184 C 59.668 -38.8184 61.084 -40.1855 61.084 -42.2852 C 61.084 -43.2129 60.8398 -44.1406 60.4004 -45.0195 C 59.375 -47.1191 57.9102 -48.8281 56.0059 -50.0977 L 56.9336 -53.9062 C 56.9824 -54.1992 57.0312 -54.4434 57.0312 -54.6875 C 57.0312 -55.7129 56.3477 -56.4453 55.3223 -56.4453 C 54.4922 -56.4453 53.8086 -55.957 53.6133 -55.0781 L 52.7832 -51.7578 C 52.002 -52.002 51.123 -52.2461 50.1953 -52.3926 L 50.5859 -53.9551 C 50.6348 -54.1992 50.6836 -54.4922 50.6836 -54.6875 C 50.6836 -55.7129 50 -56.4453 48.9746 -56.4453 C 48.1445 -56.4453 47.4609 -55.957 47.2656 -55.0781 L 46.6797 -52.5879 C 37.4512 -52.1973 31.7383 -45.6055 31.7383 -35.1074 Z M 43.6523 -25.1953 L 48.6328 -45.8496 C 49.5605 -45.6543 50.3906 -45.3125 51.123 -44.8242 L 46.1914 -24.2676 C 45.2148 -24.4141 44.3848 -24.707 43.6523 -25.1953 Z M 39.7461 -35.0586 C 39.7461 -40.4785 41.6992 -44.2871 44.9707 -45.5078 L 40.918 -28.8086 C 40.1367 -30.5176 39.7461 -32.6172 39.7461 -35.0586 Z"/>
  </g>
  <g id="Semibold-S" transform="matrix(1 0 0 1 1996.2 696)">
   <path d="M 47.0703 4.98047 C 69.0918 4.98047 87.3047 -13.1836 87.3047 -35.2539 C 87.3047 -57.2754 69.0918 -75.4883 47.0215 -75.4883 C 25 -75.4883 6.83594 -57.2754 6.83594 -35.2539 C 6.83594 -13.1836 25.0488 4.98047 47.0703 4.98047 Z M 47.0703 -4.58984 C 30.0781 -4.58984 16.4551 -18.2129 16.4551 -35.2539 C 16.4551 -52.2461 30.0293 -65.8691 47.0215 -65.8691 C 64.0625 -65.8691 77.6855 -52.2461 77.7344 -35.2539 C 77.7344 -18.2129 64.0625 -4.58984 47.0703 -4.58984 Z M 31.2012 -35.0098 C 31.2012 -27.9785 33.6426 -22.7539 37.8418 -19.7754 L 36.7188 -15.2344 C 36.6211 -14.9414 36.5723 -14.5996 36.5723 -14.3555 C 36.5723 -13.2324 37.3535 -12.4512 38.4277 -12.4512 C 39.3555 -12.4512 40.0391 -12.9395 40.2832 -13.916 L 41.2598 -17.9688 C 42.1387 -17.627 43.0664 -17.3828 44.043 -17.1875 L 43.5547 -15.1855 C 43.457 -14.7949 43.4082 -14.5508 43.4082 -14.3066 C 43.4082 -13.1836 44.1406 -12.4512 45.2637 -12.4512 C 46.1914 -12.4512 46.875 -12.9395 47.1191 -13.916 L 47.9004 -16.9922 C 54.0527 -17.2363 58.7402 -20.459 60.498 -25.1465 C 60.791 -25.8301 60.9375 -26.5625 60.9375 -27.2949 C 60.9375 -29.1992 59.668 -30.5664 57.666 -30.5664 C 56.0059 -30.5664 55.0293 -29.6387 54.3945 -28.0273 C 53.5645 -25.7812 51.7578 -24.0234 49.4141 -23.4863 L 54.0527 -42.1875 C 54.1992 -42.0898 54.3457 -41.7969 54.4922 -41.4062 C 55.127 -40.332 55.8594 -39.4531 57.4707 -39.4531 C 59.375 -39.4531 60.6445 -40.7227 60.6445 -42.627 C 60.6445 -43.457 60.4492 -44.2871 60.0586 -45.0684 C 59.1797 -47.1191 57.7637 -48.877 55.957 -50.1465 L 56.9824 -54.3457 C 57.0801 -54.6387 57.1289 -54.9316 57.1289 -55.1758 C 57.1289 -56.25 56.3965 -57.0312 55.2734 -57.0312 C 54.3457 -57.0312 53.6133 -56.543 53.418 -55.5664 L 52.5391 -52.002 C 51.6602 -52.3438 50.7324 -52.5879 49.7559 -52.7344 L 50.1465 -54.3457 C 50.1953 -54.6387 50.2441 -54.9316 50.2441 -55.1758 C 50.2441 -56.25 49.5117 -57.0312 48.4375 -57.0312 C 47.5098 -57.0312 46.7773 -56.543 46.5332 -55.5664 L 45.8984 -52.9297 C 36.9141 -52.3926 31.2012 -45.6055 31.2012 -35.0098 Z M 42.7734 -24.2188 L 48.291 -46.7285 C 49.2676 -46.582 50.1953 -46.1914 51.0254 -45.7031 L 45.5078 -23.1934 C 44.4824 -23.3398 43.6035 -23.6816 42.7734 -24.2188 Z M 38.3789 -34.9609 C 38.3789 -40.918 40.625 -45.1172 44.3359 -46.4355 L 39.7949 -27.9297 C 38.8672 -29.834 38.3789 -32.1777 38.3789 -34.9609 Z"/>
  </g>
  <g id="Medium-S" transform="matrix(1 0 0 1 1699.83 696)">
   <path d="M 46.7285 4.63867 C 68.5547 4.63867 86.6211 -13.4277 86.6211 -35.2539 C 86.6211 -57.0312 68.5059 -75.1465 46.6797 -75.1465 C 24.8535 -75.1465 6.83594 -57.0312 6.83594 -35.2539 C 6.83594 -13.4277 24.9023 4.63867 46.7285 4.63867 Z M 46.7285 -4.00391 C 29.3945 -4.00391 15.5273 -17.9199 15.5273 -35.2539 C 15.5273 -52.5879 29.3457 -66.4551 46.6797 -66.4551 C 64.0137 -66.4551 77.8809 -52.5879 77.9297 -35.2539 C 77.9785 -17.9199 64.0625 -4.00391 46.7285 -4.00391 Z M 30.7617 -34.9121 C 30.7617 -28.0273 33.1055 -22.7539 37.1094 -19.6777 L 35.8887 -14.6484 C 35.791 -14.3555 35.7422 -14.0137 35.7422 -13.7695 C 35.7422 -12.5977 36.5234 -11.7676 37.6465 -11.7676 C 38.623 -11.7676 39.4043 -12.3047 39.6484 -13.3301 L 40.6738 -17.627 C 41.6016 -17.2852 42.627 -16.9922 43.6523 -16.7969 L 43.0664 -14.5996 C 43.0176 -14.2578 42.9688 -14.0137 42.9688 -13.7207 C 42.9688 -12.5488 43.7012 -11.7676 44.873 -11.7676 C 45.8496 -11.7676 46.6309 -12.3047 46.875 -13.3301 L 47.6562 -16.6016 C 53.8574 -16.8945 58.4473 -20.1172 60.2051 -24.8535 C 60.498 -25.4883 60.6445 -26.2207 60.6445 -26.9043 C 60.6445 -28.6621 59.4727 -29.9316 57.6172 -29.9316 C 56.0547 -29.9316 55.127 -28.9551 54.5898 -27.4902 C 53.7109 -25.0488 51.709 -23.1934 49.1211 -22.6074 L 54.1016 -42.7734 C 54.248 -42.627 54.3945 -42.334 54.5898 -41.9434 C 55.127 -40.918 55.8105 -39.9414 57.373 -39.9414 C 59.1797 -39.9414 60.3516 -41.1133 60.3516 -42.8711 C 60.3516 -43.6035 60.1562 -44.3848 59.8145 -45.1172 C 58.9844 -47.168 57.6172 -48.877 55.9082 -50.1953 L 57.0312 -54.6387 C 57.1289 -54.9805 57.1777 -55.2734 57.1777 -55.5176 C 57.1777 -56.6895 56.3965 -57.4707 55.2246 -57.4707 C 54.248 -57.4707 53.5156 -56.9824 53.2227 -55.957 L 52.2949 -52.2461 C 51.416 -52.5879 50.4395 -52.832 49.4141 -53.0273 L 49.8047 -54.6875 C 49.9023 -54.9805 49.9512 -55.2734 49.9512 -55.5176 C 49.9512 -56.6895 49.1699 -57.4707 47.998 -57.4707 C 47.0215 -57.4707 46.2891 -56.9824 45.9961 -55.957 L 45.3613 -53.1738 C 36.4746 -52.5879 30.7617 -45.6055 30.7617 -34.9121 Z M 42.1387 -23.4863 L 48.0469 -47.4121 C 49.0723 -47.2656 50.0488 -46.875 50.9277 -46.3867 L 45.0195 -22.3633 C 43.8965 -22.5586 42.9688 -22.9492 42.1387 -23.4863 Z M 37.3535 -34.9121 C 37.3535 -41.2109 39.8438 -45.7031 43.8477 -47.0703 L 38.9648 -27.2461 C 37.9395 -29.2969 37.3535 -31.8848 37.3535 -34.9121 Z"/>
  </g>
  <g id="Regular-S" transform="matrix(1 0 0 1 1403.58 696)">
   <path d="M 46.2402 4.15039 C 67.7734 4.15039 85.6934 -13.7207 85.6934 -35.2539 C 85.6934 -56.7871 67.7246 -74.6582 46.1914 -74.6582 C 24.707 -74.6582 6.83594 -56.7871 6.83594 -35.2539 C 6.83594 -13.7207 24.7559 4.15039 46.2402 4.15039 Z M 46.2402 -3.27148 C 28.5156 -3.27148 14.3555 -17.4805 14.3555 -35.2539 C 14.3555 -53.0273 28.4668 -67.2363 46.1914 -67.2363 C 63.9648 -67.2363 78.1738 -53.0273 78.2227 -35.2539 C 78.2715 -17.4805 64.0137 -3.27148 46.2402 -3.27148 Z M 30.2246 -34.8145 C 30.2246 -28.0273 32.4219 -22.7539 36.1328 -19.4824 L 34.7656 -13.916 C 34.668 -13.5742 34.6191 -13.2812 34.6191 -12.9883 C 34.6191 -11.7676 35.4492 -10.8887 36.6699 -10.8887 C 37.6953 -10.8887 38.5254 -11.4258 38.8184 -12.5488 L 39.9414 -17.1875 C 40.918 -16.7969 41.9922 -16.5039 43.0664 -16.3086 L 42.4805 -13.8672 C 42.3828 -13.5254 42.334 -13.2812 42.334 -12.9883 C 42.334 -11.7188 43.1152 -10.8887 44.3848 -10.8887 C 45.4102 -10.8887 46.2402 -11.4258 46.5332 -12.5488 L 47.4121 -16.0645 C 53.6133 -16.4062 58.0566 -19.6777 59.8633 -24.4141 C 60.1074 -25.0488 60.2539 -25.7324 60.2539 -26.416 C 60.2539 -27.9785 59.2285 -29.1016 57.6172 -29.1016 C 56.1523 -29.1016 55.2734 -28.125 54.834 -26.8066 C 53.9062 -24.1211 51.6602 -22.0703 48.7305 -21.5332 L 54.1992 -43.5059 C 54.3457 -43.3594 54.541 -43.0664 54.7363 -42.5781 C 55.1758 -41.6016 55.7617 -40.5762 57.2754 -40.5762 C 58.8867 -40.5762 59.9121 -41.6504 59.9121 -43.2129 C 59.9121 -43.8477 59.7656 -44.5312 59.5215 -45.166 C 58.7402 -47.168 57.5195 -48.877 55.9082 -50.293 L 57.0801 -55.0781 C 57.1777 -55.4199 57.2266 -55.7129 57.2266 -56.0059 C 57.2266 -57.2266 56.3965 -58.0566 55.1758 -58.0566 C 54.1504 -58.0566 53.3203 -57.5684 53.0273 -56.3965 L 52.0508 -52.4902 C 51.123 -52.9297 50.0488 -53.1738 48.9746 -53.3691 L 49.3652 -55.0781 C 49.4629 -55.4199 49.5117 -55.7129 49.5117 -56.0059 C 49.5117 -57.2266 48.6816 -58.0566 47.4609 -58.0566 C 46.4355 -58.0566 45.6055 -57.5684 45.3125 -56.3965 L 44.6289 -53.5156 C 35.9375 -52.7832 30.2246 -45.6055 30.2246 -34.8145 Z M 41.2598 -22.5586 L 47.6562 -48.291 C 48.7793 -48.1445 49.8047 -47.7539 50.7812 -47.2168 L 44.3359 -21.3379 C 43.1641 -21.5332 42.1387 -21.9238 41.2598 -22.5586 Z M 36.0352 -34.8145 C 36.0352 -41.6504 38.7695 -46.5332 43.2129 -47.9492 L 37.8906 -26.416 C 36.6699 -28.6133 36.0352 -31.4453 36.0352 -34.8145 Z"/>
  </g>
  <g id="Light-S" transform="matrix(1 0 0 1 1107.6 696)">
   <path d="M 45.5078 3.4668 C 66.6992 3.4668 84.2285 -14.0625 84.2285 -35.2051 C 84.2285 -56.3965 66.6504 -73.9258 45.5078 -73.9258 C 24.3164 -73.9258 6.83594 -56.3965 6.83594 -35.2051 C 6.83594 -14.0625 24.3652 3.4668 45.5078 3.4668 Z M 45.5078 -2.24609 C 27.2461 -2.24609 12.5977 -16.9434 12.5977 -35.2051 C 12.5977 -53.5156 27.1973 -68.2129 45.5078 -68.2129 C 63.7695 -68.2129 78.4668 -53.5156 78.5156 -35.2051 C 78.5156 -16.9434 63.8184 -2.24609 45.5078 -2.24609 Z M 30.2734 -34.9121 C 30.2734 -28.3203 32.3242 -23.1934 35.9375 -20.0684 L 34.4727 -14.5508 C 34.4238 -14.2578 34.375 -14.0137 34.375 -13.7695 C 34.375 -12.7441 35.1074 -12.0117 36.084 -12.0117 C 36.9141 -12.0117 37.5977 -12.4512 37.8418 -13.3789 L 39.0625 -18.1641 C 40.1367 -17.627 41.3086 -17.2363 42.5781 -17.041 L 41.9434 -14.502 C 41.8457 -14.2578 41.8457 -14.0137 41.8457 -13.7695 C 41.8457 -12.6953 42.4805 -12.0117 43.5059 -12.0117 C 44.3848 -12.0117 45.0195 -12.4512 45.2637 -13.3789 L 46.1914 -16.8457 C 52.3438 -17.0898 56.7871 -20.2637 58.3984 -25.0977 C 58.6426 -25.6836 58.7891 -26.3672 58.7891 -27.002 C 58.7891 -28.2227 57.959 -29.1504 56.6406 -29.1504 C 55.4688 -29.1504 54.7852 -28.3691 54.4922 -27.2949 C 53.6621 -23.9746 50.9766 -21.582 47.2656 -21.1426 L 53.2715 -44.2871 C 53.8086 -43.75 54.1992 -42.9688 54.3945 -42.041 C 54.7363 -41.1621 55.2734 -40.3809 56.4453 -40.3809 C 57.7148 -40.3809 58.5449 -41.2109 58.5449 -42.5293 C 58.5449 -43.1152 58.3984 -43.75 58.2031 -44.3359 C 57.4707 -46.3867 56.25 -48.1445 54.6387 -49.5605 L 55.9082 -54.4922 C 56.0059 -54.7852 56.0547 -55.0293 56.0547 -55.2734 C 56.0547 -56.2988 55.3711 -57.0312 54.3457 -57.0312 C 53.4668 -57.0312 52.832 -56.5918 52.5879 -55.6641 L 51.4648 -51.5137 C 50.4395 -52.0508 49.2188 -52.3926 47.998 -52.6367 L 48.4375 -54.4922 C 48.5352 -54.7852 48.584 -55.0293 48.584 -55.2734 C 48.584 -56.2988 47.9492 -57.0312 46.875 -57.0312 C 45.9961 -57.0312 45.3613 -56.5918 45.1172 -55.6641 L 44.3848 -52.7832 C 35.7422 -52.2949 30.2734 -45.4102 30.2734 -34.9121 Z M 40.1367 -22.4121 L 46.9238 -48.584 C 48.1934 -48.3887 49.3652 -47.9492 50.4395 -47.3145 L 43.6523 -21.0449 C 42.2852 -21.2891 41.1621 -21.7285 40.1367 -22.4121 Z M 34.8145 -34.9121 C 34.8145 -42.2363 37.9883 -47.3145 43.2617 -48.3887 L 37.3047 -25.4883 C 35.6934 -27.832 34.8145 -31.0059 34.8145 -34.9121 Z"/>
  </g>
  <g id="Thin-S" transform="matrix(1 0 0 1 811.867 696)">
   <path d="M 44.5801 2.53906 C 65.2832 2.53906 82.2754 -14.4531 82.2754 -35.2051 C 82.2754 -55.9082 65.2344 -72.9004 44.5312 -72.9004 C 23.8281 -72.9004 6.83594 -55.9082 6.83594 -35.2051 C 6.83594 -14.4531 23.877 2.53906 44.5801 2.53906 Z M 44.5801 -0.878906 C 25.5859 -0.878906 10.2539 -16.2109 10.2539 -35.2051 C 10.2539 -54.1504 25.5859 -69.4824 44.5312 -69.4824 C 63.5254 -69.4824 78.8574 -54.1504 78.8574 -35.2051 C 78.8574 -16.2109 63.5254 -0.878906 44.5801 -0.878906 Z M 30.2734 -35.0098 C 30.2734 -28.7109 32.2266 -23.7793 35.6445 -20.8984 L 34.1309 -15.332 C 34.082 -15.1367 34.0332 -14.9902 34.0332 -14.8438 C 34.0332 -14.0625 34.6191 -13.5254 35.2539 -13.5254 C 35.8887 -13.5254 36.377 -13.8184 36.5723 -14.502 L 37.8906 -19.3848 C 39.1113 -18.75 40.4785 -18.2617 41.9434 -18.0176 L 41.2109 -15.332 C 41.1621 -15.1367 41.1621 -14.9902 41.1621 -14.7949 C 41.1621 -13.9648 41.6992 -13.5254 42.3828 -13.5254 C 43.0176 -13.5254 43.457 -13.8184 43.6523 -14.502 L 44.5801 -17.8711 C 50.5859 -17.9688 55.0781 -21.0449 56.543 -25.9766 C 56.6895 -26.5137 56.8848 -27.1973 56.8848 -27.7344 C 56.8848 -28.5645 56.2988 -29.1992 55.4199 -29.1992 C 54.6387 -29.1992 54.1504 -28.6621 54.0039 -27.9297 C 53.3203 -23.8281 50 -20.8984 45.3125 -20.6543 L 52.0996 -45.3125 C 53.0762 -44.2383 53.7598 -42.8223 53.9551 -41.3574 C 54.1504 -40.5762 54.5898 -40.0879 55.3711 -40.0879 C 56.25 -40.0879 56.7383 -40.6738 56.7383 -41.6504 C 56.7383 -42.1875 56.5918 -42.7246 56.4453 -43.2129 C 55.8105 -45.3613 54.5898 -47.2168 52.9785 -48.6816 L 54.3945 -53.7598 C 54.4434 -54.0039 54.4922 -54.1504 54.4922 -54.3945 C 54.4922 -55.127 54.0039 -55.6641 53.2227 -55.6641 C 52.6367 -55.6641 52.1484 -55.3711 51.9531 -54.6875 L 50.7324 -50.1953 C 49.5605 -50.9277 48.1445 -51.3672 46.7285 -51.6602 L 47.2656 -53.7598 C 47.3633 -53.9551 47.4121 -54.1504 47.4121 -54.3945 C 47.4121 -55.127 46.9238 -55.6641 46.1426 -55.6641 C 45.5078 -55.6641 45.0195 -55.3223 44.873 -54.6875 L 44.043 -51.8066 C 35.498 -51.6113 30.2734 -45.166 30.2734 -35.0098 Z M 38.623 -22.2168 L 45.9961 -48.9258 C 47.4609 -48.7305 48.8281 -48.1934 50 -47.4121 L 42.6758 -20.7031 C 41.1621 -20.9473 39.7949 -21.4355 38.623 -22.2168 Z M 33.252 -35.0098 C 33.252 -43.0664 36.9629 -48.3398 43.2617 -48.9258 L 36.5234 -24.2676 C 34.4238 -26.7578 33.252 -30.4688 33.252 -35.0098 Z"/>
  </g>
  <g id="Ultralight-S" transform="matrix(1 0 0 1 515.644 696)">
   <path d="M 44.043 2.05078 C 64.502 2.05078 81.2988 -14.6973 81.2988 -35.1562 C 81.2988 -55.6152 64.502 -72.3633 44.043 -72.3633 C 23.584 -72.3633 6.83594 -55.6152 6.83594 -35.1562 C 6.83594 -14.6973 23.584 2.05078 44.043 2.05078 Z M 44.043 -0.146484 C 24.7559 -0.146484 9.08203 -15.8691 9.08203 -35.1562 C 9.08203 -54.4434 24.7559 -70.166 44.043 -70.166 C 63.3789 -70.166 79.0527 -54.4434 79.0527 -35.1562 C 79.0527 -15.8691 63.3789 -0.146484 44.043 -0.146484 Z M 30.3223 -35.0586 C 30.3223 -28.9062 32.1289 -24.1211 35.498 -21.2891 L 33.9355 -15.7715 C 33.8867 -15.625 33.8867 -15.5273 33.8867 -15.3809 C 33.8867 -14.7461 34.375 -14.2578 34.8633 -14.2578 C 35.3516 -14.2578 35.7422 -14.5508 35.8887 -15.0391 L 37.3047 -20.0195 C 38.5742 -19.2871 40.0391 -18.7988 41.6504 -18.5547 L 40.8691 -15.7715 C 40.8203 -15.625 40.8203 -15.5273 40.8203 -15.332 C 40.8203 -14.6484 41.2598 -14.2578 41.7969 -14.2578 C 42.2852 -14.2578 42.6758 -14.5508 42.8223 -15.0391 L 43.75 -18.4082 C 49.707 -18.4082 54.1992 -21.4355 55.5664 -26.416 C 55.7129 -26.9531 55.9082 -27.6367 55.9082 -28.125 C 55.9082 -28.7598 55.4688 -29.248 54.7852 -29.248 C 54.1992 -29.248 53.8574 -28.8086 53.7598 -28.2715 C 53.1738 -23.6816 49.5117 -20.5566 44.3359 -20.4102 L 51.5137 -45.8496 C 52.6855 -44.4824 53.5156 -42.7246 53.7109 -41.0156 C 53.8086 -40.2344 54.248 -39.9414 54.834 -39.9414 C 55.4688 -39.9414 55.8105 -40.3809 55.8105 -41.1621 C 55.8105 -41.6504 55.6641 -42.1875 55.5176 -42.6758 C 54.9316 -44.8242 53.7598 -46.6797 52.1484 -48.1934 L 53.6133 -53.3691 C 53.6621 -53.5645 53.7109 -53.7109 53.7109 -53.9062 C 53.7109 -54.4922 53.2715 -54.9316 52.6855 -54.9316 C 52.1973 -54.9316 51.8066 -54.7363 51.6113 -54.1504 L 50.3418 -49.5117 C 49.0723 -50.3418 47.6074 -50.8301 46.0449 -51.123 L 46.6797 -53.3691 C 46.7285 -53.5156 46.7773 -53.7109 46.7773 -53.9062 C 46.7773 -54.4922 46.3867 -54.9316 45.752 -54.9316 C 45.2148 -54.9316 44.873 -54.6387 44.7266 -54.1504 L 43.8965 -51.2695 C 35.3516 -51.2695 30.3223 -45.0195 30.3223 -35.0586 Z M 32.4707 -35.0586 C 32.4707 -43.457 36.4258 -48.877 43.3105 -49.2188 L 36.1328 -23.6328 C 33.7402 -26.2207 32.4707 -30.127 32.4707 -35.0586 Z M 37.8906 -22.1191 L 45.459 -49.1211 C 47.0703 -48.877 48.4863 -48.291 49.7559 -47.4609 L 42.1875 -20.5078 C 40.5762 -20.752 39.1113 -21.2891 37.8906 -22.1191 Z"/>
  </g>
 </g>
</svg>
